<?xml version="1.0" encoding="UTF-8"?>
<svg id="Ebene_2" data-name="Ebene 2" xmlns="http://www.w3.org/2000/svg" viewBox="0 0 590.56 71.42">
  <defs>
    <style>
      .cls-1 {
        fill: #de8897;
        opacity: .11;
      }

      .cls-2 {
        letter-spacing: 0em;
      }

      .cls-3 {
        fill: #468faf;
        font-size: 36px;
      }

      .cls-3, .cls-4 {
        font-family: JeanneModernoOT-Geometrique, 'Jeanne Moderno OT';
      }

      .cls-5 {
        letter-spacing: -.02em;
      }

      .cls-6 {
        letter-spacing: -.03em;
      }

      .cls-7 {
        letter-spacing: 0em;
      }

      .cls-8 {
        letter-spacing: 0em;
      }

      .cls-4 {
        fill: #e8b82f;
        font-size: 35.99px;
      }

      .cls-9 {
        letter-spacing: 0em;
      }
    </style>
  </defs>
  <g id="Ebene_1-2" data-name="Ebene 1">
    <g>
      <g>
        <path class="cls-1" d="M305.59,22.76c2.34-.62,4.72-.99,7.14-1.11.39-.04-.68-.93-1.04-.89-2.41.15-4.78.53-7.12,1.14-.43.09.68.93,1.02.86Z"/>
        <path class="cls-1" d="M305.86,21.91c2.35-.62,4.73-1,7.15-1.13.51-.05-.04-.7-.35-.67-2.43.14-4.83.52-7.19,1.14-.52.11.08.73.39.66Z"/>
        <path class="cls-1" d="M306.17,22.6c2.34-.62,4.73-.99,7.15-1.11.38-.04-.82-1.02-1.2-.98-2.42.14-4.8.52-7.14,1.13-.42.09.84,1.03,1.2.96Z"/>
        <path class="cls-1" d="M306.9,23.44c2.35-.62,4.74-.99,7.16-1.11.52-.05-.51-.71-.45-.68-.39-.28-1.37-1.08-1.91-1.02-2.43.16-4.82.54-7.17,1.16-.49.1.46.67.46.67.36.25,1.42,1.09,1.91.98Z"/>
        <path class="cls-1" d="M306.93,22.66c2.35-.62,4.73-.98,7.15-1.11.33-.03-1.17-1.3-1.65-1.24-2.43.14-4.81.52-7.17,1.13-.38.08,1.21,1.32,1.66,1.22Z"/>
        <path class="cls-1" d="M304.89,21.6c2.36-.61,4.75-.99,7.18-1.12.15-.02.38-.47.15-.45-2.44.13-4.84.5-7.2,1.11-.15.03-.35.5-.13.46Z"/>
        <path class="cls-1" d="M304.98,22.58c2.35-.62,4.73-1,7.16-1.13.57-.06-.13-.76-.43-.73-2.43.15-4.82.53-7.18,1.15-.57.12.16.77.46.71Z"/>
        <path class="cls-1" d="M305.65,23.55c2.35-.62,4.74-.99,7.17-1.11.46-.05-.34-.61-.32-.6-.31-.25-1.08-.85-1.52-.8-2.42.16-4.8.55-7.15,1.16-.36.08,1.34,1.44,1.82,1.34Z"/>
        <path class="cls-1" d="M306.72,21.78c2.35-.62,4.74-.99,7.16-1.12.62-.06-.23-.81-.53-.78-2.44.14-4.84.51-7.21,1.13-.62.13.29.83.58.77Z"/>
        <path class="cls-1" d="M305.14,23.21c2.34-.62,4.72-.99,7.14-1.11.38-.04-.81-1.04-1.2-1-2.41.15-4.78.54-7.11,1.15-.42.09.82,1.04,1.18.96Z"/>
        <path class="cls-1" d="M306.2,21.33c2.35-.61,4.74-.99,7.17-1.12.39-.04.13-.6-.2-.57-2.44.13-4.84.5-7.21,1.12-.4.08-.08.64.24.57Z"/>
        <path class="cls-1" d="M304.59,22.03c2.36-.61,4.75-.99,7.18-1.12.29-.03.24-.55-.09-.51-2.44.14-4.84.51-7.2,1.12-.29.06-.22.57.11.51Z"/>
      </g>
      <g>
        <path class="cls-1" d="M320.4,22.87c3.11-.55,6.22-1.11,9.33-1.66.44-.08-.66-1-1-.94-3.1.55-6.2,1.1-9.29,1.65-.45.08.63,1.01.97.95Z"/>
        <path class="cls-1" d="M320.65,22.01l9.34-1.68c.51-.09,0-.73-.31-.68-3.12.56-6.23,1.12-9.35,1.67-.52.09.01.74.32.68Z"/>
        <path class="cls-1" d="M320.98,22.71c3.11-.55,6.23-1.11,9.34-1.66.43-.08-.79-1.1-1.15-1.04-3.1.55-6.2,1.1-9.3,1.64-.44.08.76,1.12,1.12,1.05Z"/>
        <path class="cls-1" d="M321.71,23.56c3.12-.55,6.23-1.11,9.35-1.66.49-.09-.41-.69-.42-.7-.33-.27-1.38-1.21-1.87-1.12-3.1.54-6.21,1.09-9.31,1.63-.49.08.39.69.41.71.32.26,1.37,1.23,1.84,1.15Z"/>
        <path class="cls-1" d="M321.72,22.77l9.35-1.66c.39-.07-1.13-1.39-1.58-1.32-3.1.54-6.21,1.09-9.31,1.63-.41.07,1.1,1.42,1.54,1.34Z"/>
        <path class="cls-1" d="M319.75,21.67l9.37-1.66c.15-.03.35-.47.06-.42-3.12.55-6.25,1.11-9.37,1.66-.15.03-.35.47-.06.42Z"/>
        <path class="cls-1" d="M319.79,22.69c3.11-.56,6.23-1.12,9.34-1.68.58-.1-.12-.81-.41-.76-3.12.56-6.23,1.12-9.35,1.68-.58.1.12.81.41.76Z"/>
        <path class="cls-1" d="M320.47,23.65l9.35-1.66c.37-.07-1.32-1.6-1.81-1.51l-9.31,1.63c-.38.07,1.29,1.62,1.77,1.54Z"/>
        <path class="cls-1" d="M321.63,21.87c3.12-.56,6.23-1.12,9.35-1.67.43-.08-.4-.81-.7-.75-3.12.56-6.23,1.12-9.35,1.67-.43.08.4.81.71.75Z"/>
        <path class="cls-1" d="M319.95,23.3l9.33-1.66c.44-.08-.81-1.14-1.18-1.07-3.1.55-6.2,1.09-9.3,1.64-.44.08.78,1.15,1.14,1.09Z"/>
        <path class="cls-1" d="M320.98,21.42c3.12-.55,6.24-1.11,9.37-1.66.37-.07.17-.62-.15-.56l-9.37,1.66c-.37.07-.17.62.15.57Z"/>
        <path class="cls-1" d="M319.4,22.12c3.12-.55,6.24-1.11,9.37-1.66.31-.05.25-.58-.07-.52l-9.37,1.66c-.31.05-.25.58.08.52Z"/>
      </g>
      <g>
        <path class="cls-1" d="M285.4,9.78c-2.72-.18-5.02.37-7.15,2.14-2.74,2.27-3.87,5.63-4.09,9.09-.16,2.51.47,5.27,1.67,7.49.77,1.43,2.1,2.27,3.6,2.77,2.21.72,4.84,1.21,7.16.63,3.02-.75,5.86-3.41,7.8-5.75,1.48-1.78,2.26-3.33,2.08-5.72-.18-2.57-1.22-5.77-2.75-7.92-2.08-2.93-6.24-3.46-9.38-4.51-.45-.15-.54.71-.29.8,5.09,1.69,8.16,1.58,10.43,7.32.56,1.42.98,2.86,1.03,4.4.07,2.46-1.45,4.51-3.12,6.15-3.44,3.38-6.08,4.85-11.51,3.55-2.31-.55-3.67-1.61-4.57-3.85s-1.28-5.75-.55-8.18l1.02-2.62c2.45-3.76,5.46-5.32,9.06-4.67.49.04-.13-1.1-.44-1.12Z"/>
        <path class="cls-1" d="M285.59,8.7c-2.87-.19-4.97.42-7.22,2.19-3.66,2.88-4.45,7.96-3.84,12.32.36,2.59,1.46,5.51,3.92,6.76,2.2,1.13,5.12,1.52,7.56,1.2,2.1-.28,3.77-1.33,5.36-2.67,2.19-1.84,4.84-4.1,5.38-7.07.58-3.19-.81-6.42-2.27-9.2-.44-.84-.75-1.46-1.54-2.13-.39-.43-.88-.71-1.49-.86-2.26-.8-4.54-1.57-6.83-2.3-.46-.15-.53.75-.28.83,2.23.74,4.57,1.36,6.74,2.27,2.37,1,4.07,5.06,4.73,7.7.41,1.09.34,2.2-.21,3.33.16,1.22-.15,2.24-.91,3.06-2.94,3.93-7.94,7.34-13.4,6.14l-1.34-.33-3.35-2.53c-.75-1.21-1.16-2.91-1.39-4.28-.4-2.44-.16-4.87.75-7.16.51-2.05,1.97-3.32,4.36-3.82,1.55-2.1,3.44-2.88,5.67-2.34.49.04-.12-1.09-.43-1.11Z"/>
        <path class="cls-1" d="M285.93,9.56c-2.73-.17-5.05.4-7.19,2.18-3.17,2.63-4.28,6.7-3.99,10.67.22,3.08,1,6.45,3.82,8.12,1.86,1.1,4.58,1.54,6.72,1.45,3.16-.14,5.58-1.99,7.79-4.1,1.41-1.34,3.02-2.85,3.67-4.75,1.16-3.38-.57-7.91-2.45-10.75-.34-.51-.69-1.07-1.18-1.43-2.17-1.62-6.04-2.4-8.23-3.14-.45-.15-.54.74-.29.82,2.27.67,4.51,1.46,6.7,2.35l2.93,3.49c.77,1.33,1.47,3.56,1.59,5.08.31,3.74-2.07,6.16-4.46,8.27-2.95,2.6-5.3,3.4-9.96,2.44-1.19-.24-2.49-.53-3.39-1.42-1.3-1.3-1.98-3.29-2.24-5.04-.37-2.42-.26-4.74.62-7.04.31-1.1.84-2.08,1.61-2.94,2.41-2.71,5.17-3.8,8.27-3.27.48.03-.06-.98-.36-1Z"/>
        <path class="cls-1" d="M286.66,10.49c-2.74-.15-4.97.47-7.15,2.15-1.89,1.45-3.15,3.76-3.7,6.03-.6,2.45-.44,5.06.23,7.46.39,1.42.9,3.26,2.07,4.27,1.92,1.65,5.35,2.52,7.85,2.35,3.49-.24,6.17-2.41,8.51-4.86,1.89-1.98,3.3-3.97,3.06-6.83-.22-2.65-1.31-5.5-2.7-7.77-.3-.5-.65-1.04-1.12-1.4-2.16-1.65-5.98-2.45-8.19-3.2-.45-.15-.55.72-.3.81,3.96,1.39,7.82,1.92,9.35,6.26.69,1.95,1.39,4.22.99,6.31-.38,1.97-1.82,3.37-3.23,4.66-1.7,1.55-3.14,3-5.46,3.54-1.91.44-3.9.1-5.8-.22-1.24-.21-2.21-.75-2.97-1.8-1.82-2.51-2.16-6.47-1.48-9.4.76-3.46,2.97-5.92,6.62-7.35,1.2-.37,2.42-.44,3.65-.21.45.03.06-.78-.23-.8Z"/>
        <path class="cls-1" d="M286.66,9.65c-2.7-.15-5.14.45-7.23,2.27-1.84,1.6-2.94,3.71-3.61,6.03-.83,2.9-.4,6.21.58,9.02.52,1.48,1.41,2.95,2.87,3.65,1.97.94,4.46,1.47,6.65,1.4,3.53-.11,6.29-2.42,8.65-4.84,1.43-1.47,2.7-2.86,3.07-4.95.29-1.65.01-3.19-.44-4.78-.43-1.49-1.28-3.67-2.18-4.96-2.09-3.01-6.2-3.55-9.43-4.63-.46-.15-.55.75-.3.84,2.95,1.03,6.96,1.68,8.8,4.66.76,1.22,1.44,3.27,1.76,4.67l.31,1.69c.27,1.63-.25,3.02-1.56,4.19-1.4,2.28-2.66,3.99-4.93,5.44-.72.53-1.52.9-2.41,1.1l-5.16-.12c-1.72-.18-3.37-.58-4.38-2.25-1.55-2.57-2.45-7.34-1.31-9.96,2.27-2.47,4.55-4.95,6.82-7.42,1.21-.36,2.43-.43,3.67-.2.45.03.05-.81-.25-.83Z"/>
        <path class="cls-1" d="M284.78,8.4c-2.03-.15-3.74-.02-5.52,1.03-1.22.72-2.34,1.63-3.22,2.75-2.33,2.93-3.09,7.16-2.35,10.79.41,2.01,1.01,4.46,2.6,5.9s4.08,1.86,6.01,2.06c2.07.21,3.96,0,5.81-.98,2.2-1.17,4.2-3.12,5.8-5,1.2-1.42,2.02-2.83,2.14-4.74.15-2.55-.88-5.19-1.98-7.42-.5-1.02-1-2.08-1.87-2.86-1.86-1.66-6.59-2.69-8.34-3.28-.45-.15-.54.71-.29.79,2.27.73,4.55,1.48,6.82,2.23,5.15,3.79,5.91,9.18,2.27,16.15l-1.4,1.41c-5.81,4.42-10.93,4.39-15.36-.08-1.15-1.97-1.56-5.04-1.43-7.22.1-1.98.63-3.83,1.59-5.56,2.56-3.77,5.67-5.31,9.32-4.62.5.04-.25-1.33-.59-1.36Z"/>
        <path class="cls-1" d="M284.84,9.52c-2.68-.18-5.2.36-7.25,2.22-3.82,3.46-4.71,8.76-3.41,13.59.5,1.85,1.06,3.62,2.7,4.75,1.04.72,2.2,1.09,3.42,1.4,1.83.47,4.03.72,5.88.24,2.81-.74,5.19-3.11,7.12-5.19,1.46-1.58,2.58-3.16,2.68-5.37.14-2.86-1.24-6.48-2.82-8.85-.33-.5-.68-1.04-1.16-1.4-2.17-1.63-5.98-2.41-8.21-3.16-.45-.15-.54.7-.29.78,4.31,1.41,7.29,1.47,9.81,5.52,1.63,2.62,2.9,7.29.95,10.13-.98,1.42-2.26,2.55-3.55,3.68-3.43,3-6.97,4.26-12.07,1.73-.99-.49-1.7-1.23-2.27-2.17-1-1.67-1.48-4.81-1.36-6.63.17-2.42.77-5.02,2.44-6.87l1.3-1.26c2.03-1.7,4.24-2.32,6.61-1.86.5.04-.22-1.26-.55-1.28Z"/>
        <path class="cls-1" d="M285.65,10.75c-2.09-.12-3.69.11-5.54,1.06-3.21,1.66-4.95,5.1-5.41,8.55-.34,2.56-.07,5,.77,7.44.44,1.28,1.11,2.5,2.22,3.29,2.31,1.66,6.39,2.48,9.13,1.58,3-.99,5.57-3.48,7.6-5.82,1.2-1.39,1.91-2.72,2.07-4.58s-.56-3.98-1.21-5.63c-.41-1.06-.84-2.25-1.49-3.18-2.06-2.93-6.1-3.43-9.27-4.49-.45-.15-.53.72-.28.8,2.24.69,4.46,1.46,6.65,2.3,1.78,1.36,2.92,3.07,3.42,5.13.51,1.65.97,3.36.67,5.11-.36,2.1-3.84,5.51-6.04,6.87-1.63,1-3.47,1.45-5.37,1.22-2.75-.33-5.17-.71-6.4-3.44-1.11-2.46-1.32-5.24-.85-7.87.34-1.5.96-2.87,1.87-4.09,2.27-2.67,4.89-3.74,7.86-3.22.49.03-.09-1.02-.4-1.04Z"/>
        <path class="cls-1" d="M286.37,8.52c-2.06-.11-3.69.07-5.5,1.09-1.17.66-2.28,1.6-3.08,2.68-1.7,2.28-2.53,4.95-2.58,7.81-.04,2.55.51,5.28,1.79,7.51s3.61,2.84,5.91,3.25,4.61.39,6.78-.73c2.62-1.35,5.38-3.89,6.93-6.32,1.86-2.93,1.07-6.25-.17-9.28-.63-1.54-1.34-3.37-2.64-4.51-1.89-1.65-6.6-2.66-8.4-3.26-.46-.15-.54.77-.29.85,2.31.64,4.56,1.45,6.74,2.43l2.96,3.48c.51,1.09.97,2.21,1.36,3.36.7,1.6.56,3.18-.43,4.75-.03,1.7-.65,3.07-1.87,4.12-1.72,2.64-4.17,3.85-7.36,3.63l-4.45.86.91-20.6c1.21-.36,2.44-.42,3.68-.19.47.03,0-.9-.3-.92Z"/>
        <path class="cls-1" d="M285.1,10.37c-2.09-.14-3.7.08-5.56,1.03-4.24,2.16-5.86,7.19-5.58,11.63.2,3.28,1.12,7.08,4.44,8.43,2.99,1.21,6.81,1.73,9.73.06,2.17-1.24,4.14-3.03,5.79-4.92,1.24-1.43,1.99-2.82,2.16-4.74s-.59-4.03-1.26-5.68c-.43-1.05-.89-2.28-1.55-3.19-2.09-2.88-6.18-3.42-9.3-4.46-.44-.15-.54.69-.29.78,2.26.71,4.5,1.46,6.72,2.25,1.83,1.3,3.06,2.98,3.69,5.04,1.22,3.26,1.68,6.07-1.19,9.35-2.71,3.09-6.45,5.4-10.65,4.53-1.09-.23-2.6-.5-3.6-1.11-1.71-1.04-2.49-3.28-2.8-5.13-.47-2.75-.35-5.54.98-8.06.54-1.08,1.27-2,2.2-2.77,2.01-1.71,4.2-2.34,6.56-1.89.49.04-.17-1.15-.48-1.17Z"/>
        <path class="cls-1" d="M285.9,8.05c-2.8-.17-5.13.45-7.26,2.34-3.51,3.1-4.3,7.83-3.65,12.25.29,2,1.08,4.19,2.48,5.72.86.94,2.21,1.35,3.4,1.69,2.77.78,5.69.97,8.31-.36,2.87-1.46,5.89-4.24,7.37-7.07,1.58-3.03.44-6.46-.87-9.39-.59-1.31-1.16-2.71-2.28-3.68-.41-.44-.92-.75-1.54-.92-2.27-.82-4.56-1.59-6.86-2.32-.47-.16-.53.79-.29.88,2.28.69,4.54,1.47,6.76,2.33l3.84,4.99c1.45,2.78,1.85,6.43-.11,9.12-.45.66-.96,1.27-1.53,1.84-1.38,1.82-3.29,2.87-5.71,3.13l-4.34,1.71c-.34-7.01-.68-14.01-1.01-21.02,1.21-.35,2.44-.41,3.68-.17.49.04-.09-1.05-.39-1.07Z"/>
        <path class="cls-1" d="M284.48,8.94c-1.6-.11-2.21-.24-3.8.26-1.89.6-3.7,1.92-4.93,3.47-1.63,2.04-2.6,5.05-2.58,7.64s.35,5.42,1.72,7.57c1.73,2.69,5.04,3.48,8.07,3.59,2.14.08,3.82-.39,5.61-1.57,2.28-1.52,4.43-3.51,5.97-5.79,1.09-1.62,1.22-3.44.98-5.33-.29-2.28-1.41-5.08-2.65-6.97-.32-.49-.68-.98-1.12-1.37-1.87-1.62-6.53-2.66-8.26-3.24-.45-.15-.53.71-.28.79,1.78.58,3.55,1.15,5.33,1.73,1.34.18,2.35.88,3.03,2.11,2.15,1.59,2.85,3.86,2.11,6.79,1.45,2.33,1.47,4.26.07,5.79-.86,1.14-1.88,2.27-2.98,3.19-3.52.91-7.03,1.81-10.55,2.72-.66-.17-1.29-.42-1.89-.75-.91-.34-1.51-1.03-1.8-2.07-.88-.85-1.38-1.86-1.49-3.04-.52-2.25-.65-4.66,0-6.92.41-1.45,1.19-2.91,2.14-4.09.96-1.2,2.21-1.94,3.76-2.23,1.3-.95,2.7-1.23,4.2-.83.49.04-.31-1.42-.65-1.44Z"/>
      </g>
      <g>
        <path class="cls-1" d="M329.29,7.28c-2.33-.43-4.69-.6-7.06-.53-1.47-.08-2.9.09-4.29.5-.28.11-.57.27-.79.48-1.1,1.03-1.03,3.96-1.03,4.99.21,3.41.38,6.81.5,10.23-.12,3.01-.36,6-.74,8.98-.05.48,1.31-.27,1.35-.61.43-4.39.77-8.72.5-13.12-.14-2.29-.52-4.5-.34-6.8.12-1.61.08-2.4,1.6-3.21,1.25-.3,2.53-.41,3.83-.35,2.34-.06,4.67.12,6.97.55.46.06-.17-1.07-.49-1.11Z"/>
        <path class="cls-1" d="M329.47,6.2c-2.36-.3-4.69-.6-7.08-.52-1.32.05-3.09,0-4.34.53-.74.32-1.14.78-1.41,1.59-.44,1.3-.43,2.81-.41,4.15.03,2.14.28,4.37.39,6.49.22,4.32-.1,8.36-.54,12.67-.04.43.69.15.72-.15.37-3.71.72-7.4.62-11.14.05,1.89-.26-7.75-.33-5.09l1.56-7.56.72-.16c3.45-.67,7.16-.18,10.59.27.46.06-.15-1.04-.47-1.08Z"/>
        <path class="cls-1" d="M329.82,7.06c-2.34-.42-4.71-.59-7.08-.5-1.49-.08-2.92.09-4.31.53-.76.32-1.05.69-1.38,1.48-.48,1.13-.48,3.08-.47,4.07.25,3.39.43,6.78.55,10.17-.11,3-.35,6-.72,8.98-.05.47,1-.09,1.02-.4.35-3.67.68-7.3.57-10.99-.11-3.61-.04-1.02-.39-5l-.2-2.67,2.21-4.91c1.77-.27,3.54-.36,5.32-.26,1.77-.02,3.54.14,5.28.49.46.06-.09-.94-.4-.98Z"/>
        <path class="cls-1" d="M330.67,7.99c-3.49-.43-7.27-1.01-10.75-.18-1.07.25-1.62.57-2.09,1.61-.53,1.16-.5,2.85-.48,3.98.26,3.37.45,6.75.57,10.13-.1,3-.34,5.98-.72,8.96-.05.48,1.19-.21,1.22-.54.34-3.64.65-7.24.51-10.9-.14-3.57-.01-1.02-.48-4.95l-.28-2.64,1.38-4.75c.8-.23,1.62-.34,2.46-.32,2.9-.34,5.81-.22,8.72.36.53.07.24-.73-.06-.76Z"/>
        <path class="cls-1" d="M330.67,7.16c-1.83-.23-3.56-.45-5.39-.47-1.74-.03-4.06-.19-5.72.4-.94.34-1.37.64-1.74,1.62-.47,1.25-.5,2.85-.47,4.09.05,1.83.28,3.65.41,5.48.33,4.54-.19,9.08-.65,13.59-.05.45.78.09.81-.21.48-4.93.91-9.86.36-14.8-.33-1.74-.14-3.46.54-5.17-.77-2.36-.42-3.65,1.04-3.89.69-.18,1.4-.26,2.13-.23,2.91-.33,5.82-.21,8.73.36.54.07.23-.74-.06-.78Z"/>
        <path class="cls-1" d="M328.66,5.9c-2.34-.43-4.7-.6-7.07-.51-1.48-.08-2.91.09-4.3.51-.62.27-.78.48-1.1,1.02-.81,1.38-.78,3.16-.77,4.7.25,3.41.43,6.83.55,10.25-.12,3.02-.36,6.02-.73,9.02-.05.45.8.09.83-.2.45-4.47.81-8.89.6-13.39-.11-2.34-.42-4.6-.18-6.94.17-1.73.38-2.59,2.06-3.37,1.25-.23,2.52-.33,3.8-.31,2.34-.06,4.67.12,6.98.55.47.06-.3-1.29-.64-1.33Z"/>
        <path class="cls-1" d="M328.73,7.02c-2.33-.43-4.69-.6-7.06-.51-1.46-.07-2.88.09-4.26.48-.6.24-.75.44-1.07.95-1.3,2.06-.76,5.19-.61,7.46.25,2.44.36,4.89.32,7.35-.12,3.01-.37,6.01-.75,8.99-.05.48,1.41-.32,1.45-.67.44-4.44.82-8.77.54-13.23-.16-2.58-.7-5.5-.09-8.06.23-.95.72-1.59,1.75-1.75,3.46-.53,6.95-.18,10.39.27.47.06-.27-1.23-.61-1.27Z"/>
        <path class="cls-1" d="M329.55,8.24c-3.43-.44-7.17-.95-10.62-.22-.8.17-1.3.41-1.72,1.08-1.05,1.69-.77,3.97-.66,5.87.06,1.44.16,2.88.3,4.32.16,4.5-.07,8.98-.67,13.43-.05.45,1.88-.57,1.92-.99.29-2.9.56-5.77.6-8.68.04-3.28-.76-6.37-.77-9.61,0-1.73-.39-3.68,1.59-4.42l3.5-.29c2.34-.06,4.67.12,6.97.54.46.06-.13-.99-.45-1.03Z"/>
        <path class="cls-1" d="M330.26,6.03c-2.36-.29-4.69-.58-7.08-.49-1.3.05-3.08,0-4.31.55-.59.27-.79.53-1.08,1.07-.95,1.78-.72,4.12-.57,6.05.16,2.12.36,4.2.4,6.33.08,3.78-.3,7.48-.68,11.24-.02.22.39.51.42.2.29-2.97.64-5.95.68-8.93l-.12-4.61c-.52-2.29-.35-4.54.52-6.75.92-4.4-.08-3.9,3.3-4.18,3.02-.25,5.83,0,8.85.38.45.06-.02-.84-.32-.88Z"/>
        <path class="cls-1" d="M328.99,7.86c-3.44-.45-7.14-.95-10.6-.24-.82.17-1.31.41-1.75,1.08-1.08,1.69-.8,4-.71,5.92.06,1.45.15,2.89.28,4.33.15,4.51-.08,9-.68,13.47-.05.45,1.87-.56,1.91-.99.29-2.91.58-5.79.63-8.71.06-3.25-.69-6.43-.62-9.66.04-1.74-.29-3.62,1.69-4.32l3.43-.27c2.34-.06,4.65.12,6.95.54.46.06-.21-1.12-.54-1.17Z"/>
        <path class="cls-1" d="M329.79,5.55c-2.36-.3-4.7-.59-7.09-.5-1.3.05-3.1,0-4.32.56-.6.28-.8.55-1.09,1.1-.93,1.8-.68,4.17-.53,6.12.17,2.12.38,4.2.42,6.33.08,3.78-.29,7.48-.67,11.24-.02.17.34.52.37.23.29-2.97.64-5.96.69-8.94l-.11-4.62c-.51-2.29-.32-4.53.57-6.73.95-4.38-.04-3.88,3.33-4.16,3.02-.25,5.83,0,8.85.39.46.06-.11-.99-.42-1.03Z"/>
        <path class="cls-1" d="M328.37,6.44c-2.34-.43-4.7-.6-7.07-.52-1.46-.06-2.89.1-4.28.49-.28.11-.57.28-.78.49-1.14,1.08-1.06,3.99-1.06,5.12.22,3.42.38,6.84.5,10.26-.12,3.01-.37,6.01-.74,9-.05.49,1.22-.21,1.25-.54.44-4.42.76-8.77.58-13.22-.09-2.32-.35-4.56-.09-6.88.18-1.57.23-2.31,1.73-3.03,1.23-.17,2.48-.27,3.72-.29,2.34-.06,4.66.12,6.96.55.46.06-.36-1.38-.72-1.43Z"/>
      </g>
      <g>
        <path class="cls-1" d="M314.84,8.98c-2.73-.03-5.46.06-8.18.27-1.16-.05-2.31.05-3.44.3-.22.09-.61.34-.76.52-.79.94-.61,3.51-.61,4.3l.08,2.57c.23,5.16,0,10.3-.73,15.41-.05.53,1.29-.04,1.31-.34.22-2.52.44-5.03.66-7.55l-.03-7.81c-.04-1.45-.48-3.8.09-5.08.27-.59.53-.85,1.11-1.12,1-.17,2.01-.24,3.04-.22,2.71-.2,5.42-.29,8.14-.27.46,0-.37-1.01-.7-1.01Z"/>
        <path class="cls-1" d="M314.96,7.89c-3.64,0-7.27.16-10.89.47-.32-.02-.6.05-.84.22-.65.32-.65.44-.89.99-.21.5-.26.92-.31,1.48-.09,1.68-.07,3.37.07,5.05.23,5.15,0,10.29-.72,15.4-.04.43.68.26.71-.03.7-5.13.93-10.28.7-15.45-.33-1.57-.14-3.08.55-4.52-.21-1.49.25-2.23,1.38-2.22,3.62-.3,7.24-.45,10.87-.46.46,0-.3-.95-.62-.94Z"/>
        <path class="cls-1" d="M315.32,8.73c-3.63.01-7.26.17-10.88.49l-.74.16c-.58.24-.73.47-.96.96-.4.85-.37,1.73-.39,2.66-.06,1.28-.04,2.55.08,3.83.23,5.15-.01,10.28-.72,15.39-.05.49.96.1.99-.19.68-5.1.89-10.22.64-15.36-.16-1.58-.18-3.16-.07-4.74.16-1.21.74-1.82,1.74-1.83,3.62-.31,7.24-.47,10.87-.48.45-.01-.25-.88-.56-.87Z"/>
        <path class="cls-1" d="M316.19,9.63c-3.63.01-7.25.18-10.87.49-.28.03-.56.09-.83.17-.63.25-.92.66-1.15,1.29-.12.33-.16.7-.21,1.04-.09,1.64-.07,3.28.07,4.92.24,5.15,0,10.28-.71,15.39-.05.51,1.11.03,1.13-.26.56-3.8.75-7.62.59-11.44.08-2.08,0-4.16-.26-6.23l.93-4.03c3.82-.42,7.65-.63,11.49-.62.52-.01.12-.73-.18-.73Z"/>
        <path class="cls-1" d="M316.19,8.83c-3.63.01-7.26.18-10.87.49-.28.04-.56.1-.83.17-.67.28-.72.46-.97.99-.21.46-.28.87-.35,1.4-.11,1.67-.11,3.34.01,5.01.21,5.15-.04,10.28-.75,15.38-.04.44.73.23.75-.06.58-3.82.8-7.66.67-11.51.06-2.12,0-4.24-.14-6.35l1.14-4.21c3.82-.42,7.66-.62,11.5-.61.51-.01.15-.72-.16-.71Z"/>
        <path class="cls-1" d="M314.14,7.6c-2.72-.02-5.44.08-8.16.3-1.16-.03-2.31.07-3.44.31-.23.09-.61.36-.77.55-.83,1.02-.64,3.59-.63,4.52l.09,2.58c.23,5.16-.01,10.3-.73,15.42-.04.47.82.21.85-.08l.71-7.62c.01-2.61.02-5.22.04-7.82,0-1.5-.4-3.99.35-5.26.37-.62.77-.95,1.4-1.23,1-.11,2.01-.18,3.03-.2,2.7-.21,5.41-.3,8.13-.29.46,0-.52-1.19-.87-1.19Z"/>
        <path class="cls-1" d="M314.24,8.69c-2.72-.02-5.44.08-8.15.3-1.15-.02-2.28.08-3.4.3-.25.1-.52.28-.7.48-.38.42-.51,1.27-.57,1.77l-.11,2.61c.21,6.01,0,12.01-.67,18-.05.54,1.42-.08,1.44-.39.21-2.31.58-5.34.68-7.66.16-3.76-.22-7.55.07-11.3.09-1.18-.12-1.56.85-2.11.97-.66,2.08-.84,3.33-.52,2.7-.21,5.4-.3,8.11-.29.46,0-.53-1.2-.89-1.19Z"/>
        <path class="cls-1" d="M315.1,9.91l-5.44.12c-1.96-.11-3.88.03-5.78.41-.37.13-.8.24-1.07.57-.33.4-.41,1.08-.48,1.57-.12,1.3-.15,2.61-.09,3.92.16,5.56-.07,11.12-.7,16.67-.05.54,1.81-.24,1.84-.57.23-2.53.45-5.06.64-7.59.09-3.35,0-6.69-.25-10.02-.51-1.58-.12-2.79,1.17-3.64,3.61-.3,7.22-.45,10.83-.45.46,0-.36-.99-.68-.98Z"/>
        <path class="cls-1" d="M315.88,7.74c-2.16.05-8.86.08-10.98.51-.6.12-1.14.24-1.52.78-.29.41-.34.93-.41,1.41-.14.98-.17,1.96-.1,2.95.18,5.94-.03,11.89-.62,17.83-.02.21.35.55.37.27-2.44,26.97,4.02-42.68.7-15.48l1.23-6.9c3.83-.42,7.66-.63,11.51-.61.53-.01.12-.74-.18-.73Z"/>
        <path class="cls-1" d="M314.5,9.5c-2.72-.01-5.44.09-8.15.3-1.14-.03-2.27.07-3.38.29-.25.09-.51.27-.69.46-.36.39-.5,1.19-.56,1.66l-.14,2.62c.16,6.01-.08,12.01-.71,18.01-.05.54,1.84-.25,1.87-.59.2-2.28.57-5.32.66-7.6.15-3.75-.26-7.51-.08-11.25.05-1.09-.24-1.5.63-1.99.94-.65,2.03-.81,3.26-.49,2.7-.21,5.4-.31,8.11-.29.46-.01-.48-1.13-.82-1.12Z"/>
        <path class="cls-1" d="M315.29,7.28c-3.63,0-7.26.17-10.88.49l-.73.17c-.3.13-.6.36-.79.62-.29.41-.33.97-.39,1.45-.12.99-.14,1.98-.07,2.97.19,5.94,0,11.89-.59,17.83-.02.18.32.56.34.28.43-2.57.66-5.15.7-7.74.09-3.45.07-6.9-.06-10.35-.47-2.8.24-4.27,2.12-4.41,3.62-.31,7.25-.47,10.88-.48.45-.01-.21-.85-.51-.85Z"/>
        <path class="cls-1" d="M313.85,8.11c-2.72-.02-5.44.08-8.16.3-1.15-.02-2.29.08-3.42.3-.23.09-.61.35-.76.53-.8.98-.61,3.58-.61,4.43l.07,2.58c.24,5.17,0,10.31-.73,15.43-.05.53,1.25-.01,1.28-.31.7-5.11.94-10.25.73-15.4-.05-1.22,0-2.43.16-3.63-.16-1.19.38-2.01,1.63-2.45,3.6-.3,7.21-.45,10.82-.45.45,0-.64-1.34-1.02-1.33Z"/>
      </g>
      <text class="cls-3" transform="translate(417.45 31.6)"><tspan x="0" y="0">o</tspan><tspan class="cls-6" x="23.54" y="0">r</tspan><tspan x="42.8" y="0">di</tspan><tspan class="cls-8" x="79.63" y="0">n</tspan><tspan class="cls-2" x="104.07" y="0">ary</tspan></text>
      <text class="cls-4" transform="translate(0 30.83)"><tspan class="cls-9" x="0" y="0">c</tspan><tspan x="19.69" y="0">ode &amp; d</tspan><tspan class="cls-7" x="156.96" y="0">e</tspan><tspan x="177.98" y="0">si</tspan><tspan class="cls-5" x="212.06" y="0">g</tspan><tspan x="234.77" y="0">n</tspan></text>
      <g>
        <g>
          <path class="cls-1" d="M338.86,10.21c9.17-.33,18.33-.93,27.47-1.8.4-.03-.49-.99-.79-.96-9.13.86-18.27,1.46-27.43,1.78-.4.02.45,1,.76.98Z"/>
          <path class="cls-1" d="M339.07,9.45c9.17-.34,18.33-.95,27.47-1.82.45-.04.09-.64-.18-.62-9.14.87-18.3,1.47-27.47,1.81-.45.02-.09.63.18.62Z"/>
          <path class="cls-1" d="M339.37,10.07c9.17-.33,18.33-.93,27.47-1.8.4-.03-.57-1.06-.89-1.04-9.13.87-18.27,1.46-27.43,1.78-.4.02.53,1.07.85,1.06Z"/>
          <path class="cls-1" d="M340.02,10.84c9.18-.33,18.34-.93,27.48-1.8.43-.03-.28-.64-.3-.66-.25-.26-1.1-1.24-1.52-1.2-9.12.86-18.27,1.45-27.43,1.76-.28.01,1.24,1.94,1.76,1.91Z"/>
          <path class="cls-1" d="M340.02,10.13c9.18-.33,18.34-.92,27.48-1.8.37-.03-.82-1.33-1.2-1.3-9.12.87-18.27,1.46-27.43,1.77-.37.02.77,1.35,1.15,1.33Z"/>
          <path class="cls-1" d="M338.29,9.14c9.18-.32,18.35-.92,27.5-1.79.13-.01.36-.38.1-.36-9.15.87-18.31,1.47-27.49,1.8-.13,0-.36.37-.11.36Z"/>
          <path class="cls-1" d="M338.43,10.05c9.17-.34,18.33-.95,27.47-1.82.4-.03-.23-.75-.5-.73-9.14.86-18.3,1.47-27.47,1.81-.39.02.23.75.5.74Z"/>
          <path class="cls-1" d="M338.96,10.91c9.18-.33,18.33-.93,27.47-1.8.33-.03-1.05-1.64-1.5-1.6-9.13.86-18.27,1.45-27.43,1.76-.33.02,1,1.67,1.45,1.65Z"/>
          <path class="cls-1" d="M339.81,9.35c17.98-.93,9.61-.38,27.57-1.82.39-.03-.21-.71-.48-.69-9.12.6-18.25,1.2-27.37,1.81-.52.03.02.72.28.71Z"/>
          <path class="cls-1" d="M338.48,10.58c9.17-.33,18.33-.92,27.47-1.8.4-.03-.64-1.16-.98-1.13-9.13.86-18.27,1.45-27.43,1.77-.4.02.6,1.18.94,1.16Z"/>
          <path class="cls-1" d="M339.35,8.91c9.18-.33,18.35-.92,27.5-1.8.29-.02.26-.5-.02-.47-9.14.87-18.31,1.47-27.49,1.8-.28.01-.27.48.02.47Z"/>
          <path class="cls-1" d="M337.99,9.54c9.18-.32,18.35-.92,27.49-1.79.3-.02.26-.5-.02-.48-9.15.87-18.31,1.47-27.49,1.79-.3.01-.27.5.02.48Z"/>
        </g>
        <g>
          <path class="cls-1" d="M375.09,7.93c-.38,4.96-.44,9.69.39,14.62.4,2.39.51,4.38-.06,6.74-.06.24,1.1-.53,1.18-.9.51-2.37.42-4.4.04-6.78-.76-4.87-.68-9.54-.29-14.43.03-.37-1.23.43-1.26.75Z"/>
          <path class="cls-1" d="M375.25,7.13c-.29,3.9-.43,7.53,0,11.45.12,1.43.31,2.86.58,4.27.46,1.93.39,3.82-.23,5.65-.1.41.56.1.62-.15.38-1.69.52-3.16.33-4.86-.1-.99-.24-1.97-.42-2.95-.69-4.48-.76-8.99-.23-13.52.03-.45-.63-.13-.64.11Z"/>
          <path class="cls-1" d="M375.54,7.8c-.35,4.62-.49,9.01.22,13.61.41,2.67.78,4.86.13,7.64-.13.56.81-.17.87-.42.46-2.1.52-3.73.22-5.91-.37-2.13-.63-4.27-.77-6.43-.18-3.01-.09-6.01.28-9,.03-.38-.93.24-.95.51Z"/>
          <path class="cls-1" d="M376.17,8.35c-.38,4.97-.43,9.68.37,14.62.38,2.38.5,4.38-.05,6.74-.06.25,1.06-.52,1.14-.88.51-2.37.43-4.39.04-6.78-.78-4.86-.71-9.51-.33-14.4.03-.37-1.14.39-1.16.69Z"/>
          <path class="cls-1" d="M376.09,7.84c-.35,4.64-.47,9.01.24,13.64.41,2.68.76,4.85.11,7.64-.11.49.68-.03.74-.27.47-2.08.52-3.71.22-5.87-.37-2.13-.64-4.28-.8-6.45-.18-3.03-.1-6.05.26-9.06.03-.37-.75.12-.77.37Z"/>
          <path class="cls-1" d="M374.56,7.06c-.34,4.63-.47,9.02.26,13.64l.34,1.99c.47,1.93.4,3.82-.23,5.65-.11.45.62.06.67-.19.47-2.08.49-3.76.22-5.85-.36-2.16-.62-4.33-.78-6.51-.18-3.03-.09-6.06.27-9.07.03-.37-.73.09-.75.34Z"/>
          <path class="cls-1" d="M374.61,7.78c-.38,4.96-.45,9.69.39,14.62.41,2.39.52,4.38-.06,6.74-.06.23,1.15-.55,1.23-.94.51-2.37.41-4.4.05-6.78-.75-4.88-.66-9.55-.27-14.45.03-.36-1.31.47-1.34.8Z"/>
          <path class="cls-1" d="M375.26,8.61c-.38,4.98-.43,9.7.37,14.65.39,2.38.51,4.38-.06,6.73-.1.42.68-.26.61-.21.32-.26,1.04-.82,1.13-1.25.5-2.37.42-4.39.04-6.78-.76-4.84-.65-9.5-.26-14.36.02-.29-1.8.78-1.83,1.22Z"/>
          <path class="cls-1" d="M375.99,6.92c-.35,4.65-.48,9.02.22,13.66.41,2.71.75,4.92.1,7.73-.05.2.33.32.39.06.48-2.05.53-3.63.23-5.76-.39-2.15-.66-4.32-.82-6.51-.19-3.04-.1-6.06.27-9.08.02-.21-.36-.36-.38-.09Z"/>
          <path class="cls-1" d="M374.75,8.36c-.38,4.97-.45,9.7.39,14.64.4,2.39.52,4.38-.06,6.74-.1.41.66-.24.59-.19.31-.21,1-.8,1.08-1.2.5-2.37.41-4.4.04-6.78-.75-4.85-.64-9.51-.24-14.38.02-.3-1.76.75-1.8,1.17Z"/>
          <path class="cls-1" d="M375.65,6.6c-.35,4.65-.48,9.02.22,13.65l.32,1.99c.46,1.95.39,3.85-.22,5.7-.03.12.28.4.32.21.49-2.08.52-3.71.23-5.8-.39-2.16-.66-4.33-.82-6.52-.19-3.04-.1-6.07.27-9.09.01-.14-.31-.39-.32-.14Z"/>
          <path class="cls-1" d="M374.33,7.4c-.35,4.61-.51,9.03.23,13.62.44,2.73.81,4.89.11,7.74-.07.27.95-.41,1.02-.73.44-2.04.48-3.68.2-5.79-.36-2.14-.61-4.29-.73-6.46-.17-3.02-.06-6.02.31-9.02.03-.38-1.11.34-1.13.64Z"/>
        </g>
        <g>
          <path class="cls-1" d="M364.48,22.27c5.47-2.14,11.07-3.87,16.8-5.19.26-.07-.5-.54-.72-.48-5.72,1.33-11.32,3.06-16.79,5.2-.27.09.5.54.7.47Z"/>
          <path class="cls-1" d="M364.67,21.72c5.46-2.16,11.06-3.9,16.79-5.21.34-.09-.1-.46-.3-.41-5.73,1.31-11.34,3.05-16.81,5.21-.34.12.13.47.32.41Z"/>
          <path class="cls-1" d="M364.86,22.17c5.47-2.15,11.07-3.88,16.79-5.19.25-.07-.61-.6-.85-.54-5.72,1.33-11.32,3.06-16.79,5.2-.26.09.62.61.85.53Z"/>
          <path class="cls-1" d="M365.32,22.69c5.47-2.15,11.07-3.88,16.8-5.19.16-.04-1.23-1-1.62-.89-5.72,1.34-11.32,3.08-16.8,5.22-.18.06,1.25,1,1.62.87Z"/>
          <path class="cls-1" d="M365.35,22.2c5.47-2.15,11.07-3.88,16.8-5.19.22-.06-.88-.76-1.18-.68-5.72,1.33-11.32,3.07-16.8,5.2-.24.08.9.77,1.18.67Z"/>
          <path class="cls-1" d="M364.07,21.52c5.59-1.73,11.18-3.46,16.78-5.19.11-.03.21-.35.05-.3-11.33,3.04-5.78,1.33-16.86,5.21-.11.04-.15.35.04.28Z"/>
          <path class="cls-1" d="M364.09,22.16c5.46-2.16,11.06-3.9,16.79-5.21.35-.09-.13-.48-.32-.43-5.73,1.32-11.33,3.06-16.8,5.22-.35.12.15.48.34.42Z"/>
          <path class="cls-1" d="M364.5,22.78c5.47-2.15,11.07-3.88,16.8-5.19.22-.06-.91-.8-1.22-.72-5.72,1.34-11.31,3.08-16.79,5.22-.24.08.92.8,1.2.7Z"/>
          <path class="cls-1" d="M365.29,21.6c5.58-1.72,11.15-3.45,16.73-5.17.41-.11-.26-.52-.45-.47-11.29,3.04-5.87,1.36-16.9,5.22-.27.09.42.49.62.42Z"/>
          <path class="cls-1" d="M364.19,22.56c5.47-2.15,11.06-3.88,16.79-5.19.26-.07-.57-.59-.8-.52-5.72,1.33-11.31,3.07-16.77,5.21-.27.09.57.58.78.51Z"/>
          <path class="cls-1" d="M364.91,21.36c5.46-2.16,11.06-3.9,16.79-5.21.28-.08-.01-.42-.22-.37-5.74,1.31-11.34,3.05-16.81,5.21-.29.1.05.44.24.37Z"/>
          <path class="cls-1" d="M363.83,21.81c5.48-2.15,11.08-3.88,16.81-5.2.18-.05.11-.37-.1-.32-5.74,1.32-11.34,3.05-16.82,5.2-.18.06-.1.39.1.32Z"/>
        </g>
        <g>
          <path class="cls-1" d="M348.86,11.95c.53,3.56.83,7.14.92,10.74.23,3.59.24,7.18.02,10.77,0,.32,1.17-.76,1.17-1.15.2-3.61.18-7.21-.06-10.81-.1-3.59-.4-7.16-.92-10.71-.04-.36-1.17.8-1.13,1.17Z"/>
          <path class="cls-1" d="M349.04,11.09c.54,3.56.86,7.14.94,10.74.23,3.59.24,7.18.02,10.77,0,.47.64.03.64-.24.21-3.6.2-7.19-.03-10.79-.09-3.6-.4-7.19-.94-10.75-.05-.47-.66,0-.63.27Z"/>
          <path class="cls-1" d="M349.35,11.8c.53,3.56.84,7.14.92,10.73.23,3.59.24,7.18.02,10.77,0,.35.92-.52.92-.85.21-3.61.19-7.21-.05-10.81-.09-3.59-.4-7.15-.92-10.71-.04-.38-.93.55-.9.86Z"/>
          <path class="cls-1" d="M350,12.39c.53,3.56.83,7.15.92,10.74.23,3.59.24,7.18.03,10.77,0,.31,1.2-.81,1.2-1.22.21-3.62.19-7.23-.05-10.84-.1-3.59-.4-7.17-.91-10.73-.04-.35-1.23.89-1.19,1.27Z"/>
          <path class="cls-1" d="M349.97,11.83l.93,21.4c-.01.59.78-.19.79-.46.06-3.65.13-7.23-.04-10.87-.26-5.74-.09-2.93-.91-10.78-.04-.38-.8.42-.77.71Z"/>
          <path class="cls-1" d="M348.33,10.91c.54,3.56.86,7.14.94,10.74.23,3.59.24,7.18.02,10.77,0,.49.67,0,.67-.27.21-3.6.2-7.19-.04-10.78-.09-3.6-.4-7.18-.94-10.75-.05-.49-.67.02-.65.29Z"/>
          <path class="cls-1" d="M348.36,11.78c.53,3.56.83,7.14.92,10.74.23,3.59.24,7.18.02,10.77,0,.32,1.18-.77,1.19-1.16.2-3.6.17-7.2-.07-10.8-.1-3.59-.41-7.16-.92-10.71-.04-.37-1.18.8-1.14,1.16Z"/>
          <path class="cls-1" d="M349,12.74c.53,3.56.84,7.15.92,10.74.23,3.59.24,7.17.02,10.76,0,.46.69-.37.65-.33.3-.32,1.12-1.1,1.12-1.58.19-3.62.17-7.23-.08-10.84-.1-3.59-.41-7.17-.91-10.73-.05-.44-.64.36-.64.35-.26.29-1.13,1.18-1.09,1.62Z"/>
          <path class="cls-1" d="M349.8,10.85c.53,3.57.84,7.16.92,10.77.23,3.59.24,7.18.02,10.77,0,.24.44.29.44,0,.22-3.6.21-7.19-.02-10.79-.08-3.61-.39-7.2-.92-10.77-.03-.24-.47-.26-.44.03Z"/>
          <path class="cls-1" d="M348.5,12.44c.53,3.56.84,7.15.92,10.74.23,3.59.24,7.18.02,10.77,0,.44.65-.32.62-.29.28-.29,1.03-1.02,1.04-1.47.19-3.61.16-7.22-.08-10.83-.11-3.59-.41-7.16-.91-10.72-.04-.42-.6.3-.61.3-.24.27-1.04,1.07-.99,1.48Z"/>
          <path class="cls-1" d="M349.44,10.44c.53,3.57.84,7.16.92,10.76.23,3.59.24,7.18.02,10.77,0,.12.36.38.37.19.22-3.6.21-7.19-.02-10.78-.08-3.61-.39-7.2-.92-10.77-.01-.12-.39-.35-.37-.18Z"/>
          <path class="cls-1" d="M348.07,11.38c.53,3.56.84,7.14.92,10.74.23,3.59.24,7.18.02,10.77,0,.35.97-.55.97-.88.2-3.6.18-7.19-.07-10.78-.1-3.58-.41-7.15-.93-10.7-.04-.39-.95.55-.91.86Z"/>
        </g>
        <g>
          <path class="cls-1" d="M367.45,7.82c.65,8.16,1.19,16.34,1.64,24.51.02.34,1.12-.7,1.1-1.04-.45-8.17-1-16.34-1.64-24.49-.03-.35-1.13.68-1.11,1.02Z"/>
          <path class="cls-1" d="M367.61,7.03c.66,8.16,1.22,16.33,1.66,24.51.03.44.61.03.6-.22-.45-8.18-1-16.35-1.66-24.51-.03-.44-.62-.02-.6.22Z"/>
          <path class="cls-1" d="M367.9,7.69c.65,8.16,1.2,16.33,1.65,24.51.02.36.88-.47.86-.76-.45-8.17-1-16.33-1.64-24.49-.03-.36-.89.46-.87.74Z"/>
          <path class="cls-1" d="M368.51,8.23c.64,8.17,1.19,16.34,1.64,24.52.02.33,1.14-.73,1.12-1.08-.45-8.17-1-16.34-1.63-24.5-.02-.34-1.15.72-1.13,1.07Z"/>
          <path class="cls-1" d="M368.47,7.71c.64,8.16,1.19,16.34,1.64,24.51.02.36.75-.34.73-.6-.45-8.17-1-16.34-1.63-24.5-.03-.36-.75.33-.74.59Z"/>
          <path class="cls-1" d="M366.95,6.86c.66,8.16,1.21,16.33,1.66,24.51.03.46.64,0,.63-.24-.45-8.18-1-16.35-1.66-24.51-.03-.47-.65,0-.63.25Z"/>
          <path class="cls-1" d="M366.99,7.67c.65,8.17,1.19,16.34,1.64,24.52.02.34,1.14-.71,1.12-1.05-.46-8.17-1-16.34-1.64-24.49-.03-.35-1.15.69-1.13,1.03Z"/>
          <path class="cls-1" d="M367.58,8.54c.65,8.17,1.2,16.34,1.65,24.52.02.41.6-.29.6-.29.25-.25,1.08-1.03,1.06-1.43-.46-8.17-1-16.34-1.63-24.5-.03-.4-.59.28-.6.29-.24.24-1.1,1.02-1.07,1.42Z"/>
          <path class="cls-1" d="M368.33,6.81c.64,8.17,1.19,16.35,1.64,24.53.01.22.42.27.41,0-.45-8.18-1-16.36-1.64-24.53-.02-.22-.43-.27-.41,0Z"/>
          <path class="cls-1" d="M367.11,8.28c.65,8.17,1.2,16.34,1.64,24.52.02.26,1.59-1.11,1.56-1.58-.46-8.17-1-16.33-1.63-24.49-.02-.27-1.61,1.1-1.57,1.56Z"/>
          <path class="cls-1" d="M367.99,6.43c.65,8.17,1.19,16.35,1.64,24.53,0,.12.35.35.34.18-.45-8.18-1-16.36-1.64-24.53,0-.12-.35-.34-.34-.18Z"/>
          <path class="cls-1" d="M366.71,7.29c.65,8.16,1.2,16.33,1.65,24.51.02.36.93-.5.92-.8-.45-8.17-1-16.33-1.64-24.49-.03-.37-.94.49-.92.77Z"/>
        </g>
        <g>
          <path class="cls-1" d="M399.85,7.01c-5.71,0-11.11.35-16.75,1.07-.16.02.05.27.15.25,5.53-.88,11.08-1.24,16.66-1.06.19,0,.05-.26-.06-.26Z"/>
          <path class="cls-1" d="M399.91,6.63c-5.71,0-11.04.35-16.71,1.07-.16.02-.06.25.05.23,5.66-.72,10.99-1.07,16.7-1.07.17,0,.07-.24-.04-.24Z"/>
          <path class="cls-1" d="M400.07,6.97c-5.71,0-11.04.34-16.71,1.07-.13.02-.09.22.02.21,5.66-.72,10.99-1.07,16.7-1.07.14,0,.11-.21,0-.21Z"/>
          <path class="cls-1" d="M400.39,7.32c-5.68,0-11.07.34-16.73,1.06-.05,0-.15.15-.05.14,5.52-.88,11.08-1.24,16.68-1.07.05,0,.16-.14.09-.14Z"/>
          <path class="cls-1" d="M400.37,7.02c-5.67,0-11.09.35-16.71,1.07-.04,0-.15.14-.09.14,5.57-.36,11.14-.71,16.7-1.07.05,0,.16-.14.1-.14Z"/>
          <path class="cls-1" d="M399.54,6.49c-5.72,0-11.05.35-16.72,1.08-.17.02.11.33.21.32,5.66-.72,10.99-1.06,16.7-1.07.16,0-.09-.33-.2-.33Z"/>
          <path class="cls-1" d="M399.58,6.88c-5.72,0-11.05.34-16.72,1.07-.17.02.11.34.22.32,5.66-.72,10.99-1.06,16.7-1.07.16,0-.09-.33-.2-.33Z"/>
          <path class="cls-1" d="M399.97,7.37c-5.71,0-11.05.34-16.71,1.06-.18.02-.04.26.07.25,5.66-.72,10.99-1.06,16.69-1.07.18,0,.06-.25-.05-.25Z"/>
          <path class="cls-1" d="M400.22,6.61c-5.71,0-11.04.35-16.71,1.07-.06,0-.15.16-.04.15,5.67-.72,11-1.07,16.71-1.07.07,0,.15-.16.04-.16Z"/>
          <path class="cls-1" d="M399.69,7.19c-5.71,0-11.05.34-16.72,1.07-.16.02.09.31.2.3,5.66-.72,10.99-1.06,16.69-1.07.16,0-.07-.3-.18-.3Z"/>
          <path class="cls-1" d="M400.03,6.42c-5.71,0-11.04.35-16.71,1.08-.12.02-.11.21,0,.2,5.67-.72,11-1.07,16.71-1.07.13,0,.11-.21,0-.21Z"/>
          <path class="cls-1" d="M399.42,6.65c-5.72,0-11.05.35-16.72,1.08-.17.02.15.38.27.37,5.66-.72,10.99-1.06,16.7-1.07.16,0-.13-.38-.25-.38Z"/>
        </g>
        <g>
          <path class="cls-1" d="M383.9,9.83c-.62,3.97-1.03,7.7-.65,11.73.24,2.53.43,4.85.17,7.4-.02.15.47-.19.49-.33.27-2.63.03-4.76-.16-7.38-.28-3.97.04-7.74.66-11.67.03-.16-.5.11-.52.24Z"/>
          <path class="cls-1" d="M384.06,9.42c-.63,3.99-.99,7.71-.65,11.73.21,2.57.43,4.82.17,7.4-.02.16.22.09.23-.02.3-1.63.33-3.26.1-4.9-.71-4.79-.59-9.52.38-14.19.03-.16-.22-.12-.23-.01Z"/>
          <path class="cls-1" d="M384.14,9.74c-.62,3.97-1.03,7.7-.65,11.74.23,2.53.43,4.85.16,7.4-.02.15.37-.11.38-.23.26-1.22.31-2.44.18-3.67-.05-1.24-.17-2.47-.34-3.7-.29-3.98.04-7.76.66-11.7.03-.16-.37.05-.39.16Z"/>
          <path class="cls-1" d="M384.39,10c-.63,3.97-1.03,7.7-.66,11.73.23,2.53.43,4.86.17,7.4-.02.15.45-.18.47-.32.26-1.22.31-2.44.17-3.67-.05-1.24-.17-2.47-.34-3.7-.29-3.97.03-7.73.65-11.66.03-.16-.44.09-.46.21Z"/>
          <path class="cls-1" d="M384.45,9.68c-.49,3.09-.87,4.68-.83,7.83.04,3.8.72,7.48.33,11.3-.02.2.28.03.29-.07.28-2.7.36-2.22.1-4.94l-.27-2.47c-.37-3.91-.16-7.79.65-11.66.03-.18-.25-.09-.26.01Z"/>
          <path class="cls-1" d="M383.74,9.4c-.51,3.27-.88,6.44-.73,9.76s.6,6.09.27,9.32c-.02.19.26.06.27-.05.22-2.17.2-4-.03-6.18-.47-4.44-.16-8.57.53-12.95.02-.16-.29,0-.3.1Z"/>
          <path class="cls-1" d="M383.68,9.76c-.62,3.97-1.03,7.7-.64,11.73.24,2.53.44,4.85.17,7.4-.02.15.49-.2.51-.35.27-2.62.03-4.76-.15-7.38-.28-3.97.05-7.74.67-11.67.03-.16-.53.13-.55.26Z"/>
          <path class="cls-1" d="M383.97,10.13c-.63,3.97-1.03,7.7-.65,11.74.23,2.53.43,4.86.17,7.41-.01.12.66-.33.68-.51.27-2.62.03-4.74-.15-7.36-.28-3.96.05-7.72.67-11.65.02-.15-.68.21-.71.37Z"/>
          <path class="cls-1" d="M384.4,9.3c-.62,3.97-1.03,7.7-.66,11.73.23,2.52.42,4.85.16,7.39,0,.03.11.13.11.12.26-1.22.32-2.44.18-3.67-.05-1.24-.17-2.48-.35-3.72-.29-3.98.03-7.77.65-11.71,0-.05-.1-.11-.09-.14Z"/>
          <path class="cls-1" d="M383.74,10.03c-.62,3.97-1.03,7.7-.65,11.73.24,2.53.44,4.86.17,7.41-.01.12.65-.31.67-.49.27-2.62.03-4.75-.15-7.37-.28-3.96.05-7.73.67-11.65.02-.15-.69.21-.71.37Z"/>
          <path class="cls-1" d="M383.56,9.59c-.62,3.97-1.02,7.7-.64,11.73.24,2.53.44,4.85.18,7.4-.02.15.42-.15.44-.28.27-2.62.03-4.76-.15-7.38-.28-3.98.05-7.75.67-11.69.03-.17-.47.09-.49.22Z"/>
        </g>
        <g>
          <path class="cls-1" d="M381.87,32.19c5.4-1.92,10.95-2.92,16.63-2.98.23-.02-.12-.3-.22-.29-3.8.05-7.55.52-11.25,1.4-1.85.46-3.68,1.01-5.49,1.63-.15.04.22.28.33.24Z"/>
          <path class="cls-1" d="M381.91,31.86c2.67-1.01,5.41-1.72,8.23-2.12,2.77-.61,5.59-.9,8.44-.88.13,0,.05-.2-.06-.19-2.86-.02-5.68.28-8.46.88-2.82.4-5.56,1.11-8.24,2.12-.13.04-.02.23.09.19Z"/>
          <path class="cls-1" d="M382.11,32.15c5.35-1.91,10.9-2.9,16.63-2.98.26-.02-.17-.33-.28-.32-1.92.02-3.82.15-5.71.39-3.77.47-7.45,1.35-11.03,2.63-.15.04.28.31.39.27Z"/>
          <path class="cls-1" d="M382.4,32.45c2.67-1.01,5.41-1.72,8.23-2.11,2.77-.6,5.59-.89,8.44-.87.09,0-.5-.51-.7-.5-2.86,0-5.68.3-8.46.91-2.82.41-5.56,1.12-8.24,2.13-.12.04.55.49.72.43Z"/>
          <path class="cls-1" d="M382.41,32.18c2.67-1.01,5.41-1.72,8.23-2.11,2.77-.6,5.58-.89,8.43-.87.12,0-.35-.39-.51-.38-2.86,0-5.68.29-8.46.9-2.82.4-5.56,1.11-8.24,2.12-.14.04.4.38.54.34Z"/>
          <path class="cls-1" d="M381.58,32.09c2.67-1.01,5.42-1.72,8.23-2.12,2.78-.61,5.59-.9,8.45-.88.15-.01.02-.22-.09-.21-2.86-.02-5.67.28-8.45.89-2.82.4-5.56,1.11-8.24,2.12-.14.04,0,.23.1.2Z"/>
          <path class="cls-1" d="M381.95,32.5c2.67-1.01,5.42-1.72,8.23-2.11,2.78-.6,5.59-.89,8.44-.87.11,0-.39-.43-.55-.42-2.86,0-5.67.3-8.45.91-2.82.41-5.56,1.12-8.23,2.13-.14.04.41.4.56.36Z"/>
          <path class="cls-1" d="M382.26,31.83c2.67-1.01,5.41-1.72,8.23-2.12,2.77-.6,5.58-.9,8.43-.88.19-.01-.04-.25-.15-.24-2.86-.02-5.68.28-8.46.88-2.82.4-5.57,1.11-8.24,2.12-.2.06.09.27.19.24Z"/>
          <path class="cls-1" d="M381.72,32.35c5.55-.99,11.1-1.98,16.65-2.97.26-.02-.17-.33-.27-.32-2.89.2-5.63.38-8.48.9-4.63.84-1.94.25-8.26,2.13-.15.04.25.3.36.26Z"/>
          <path class="cls-1" d="M382.05,31.67c5.36-1.92,10.9-2.92,16.64-3,.06,0,.13-.17.04-.16-1.92-.06-3.81.07-5.68.38-3.77.46-7.45,1.34-11.03,2.62-.08.02-.08.2.03.16Z"/>
          <path class="cls-1" d="M381.42,31.91c2.67-1.01,5.42-1.72,8.23-2.12,2.78-.61,5.59-.9,8.44-.88.04,0,.07-.15.09-.15-2.86-.02-5.67.27-8.45.88-2.82.4-5.56,1.11-8.24,2.12-.04.01-.04.15-.07.16Z"/>
        </g>
        <g>
          <path class="cls-1" d="M384.04,23.1c4.66-1.38,9.31-2.75,13.97-4.13.23-.05-.14-.29-.24-.27-4.87,1.07-9.4,2.41-14.06,4.17-.15.06.23.26.33.22Z"/>
          <path class="cls-1" d="M384.08,22.78c4.69-1.77,9.11-3.07,14.01-4.15.13-.03.03-.22-.09-.19-4.91,1.07-9.32,2.38-14.02,4.15-.14.05,0,.23.11.19Z"/>
          <path class="cls-1" d="M384.27,23.05c4.7-1.77,9.11-3.07,14.02-4.13.14-.03-.28-.31-.4-.28-4.91,1.08-9.33,2.39-14.03,4.16-.15.06.29.3.41.25Z"/>
          <path class="cls-1" d="M384.56,23.36c4.7-1.77,9.1-3.07,14.01-4.13.1-.02-.54-.47-.73-.43-4.9,1.08-9.32,2.4-14.01,4.17-.12.05.57.46.74.39Z"/>
          <path class="cls-1" d="M384.58,23.09c4.69-1.77,9.1-3.07,14-4.13.13-.03-.4-.37-.55-.34-4.9,1.08-9.32,2.39-14.02,4.16-.14.05.43.37.56.32Z"/>
          <path class="cls-1" d="M383.75,23.01c4.7-1.77,9.11-3.07,14.01-4.15.14-.03.01-.22-.1-.2-4.91,1.07-9.32,2.38-14.02,4.15-.14.05,0,.23.11.19Z"/>
          <path class="cls-1" d="M384.11,23.41c4.7-1.77,9.11-3.07,14.01-4.14.13-.03-.41-.39-.57-.36-4.9,1.08-9.31,2.4-14.01,4.17-.14.05.43.38.57.32Z"/>
          <path class="cls-1" d="M384.43,22.74c4.69-1.77,9.1-3.07,14-4.14.2-.04-.08-.26-.19-.24-4.91,1.07-9.33,2.38-14.03,4.15-.2.08.12.27.22.23Z"/>
          <path class="cls-1" d="M383.88,23.26c4.52-1.89,9.19-3.26,14.03-4.13.14-.03-.26-.3-.38-.27-4.86,1.07-9.34,2.4-14.02,4.17-.15.06.26.28.37.24Z"/>
          <path class="cls-1" d="M384.23,22.58c4.69-1.77,9.1-3.07,14-4.15.08-.02.08-.19-.03-.16-4.91,1.07-9.32,2.37-14.03,4.14-.09.03-.05.21.06.17Z"/>
          <path class="cls-1" d="M383.59,22.83c4.7-1.77,9.11-3.08,14.01-4.15.04,0,.05-.15.07-.16-4.91,1.07-9.32,2.38-14.02,4.15-.04.02-.03.15-.06.16Z"/>
        </g>
      </g>
    </g>
  </g>
</svg>