<?xml version="1.0" encoding="UTF-8"?>
<svg id="Ebene_2" data-name="Ebene 2" xmlns="http://www.w3.org/2000/svg" viewBox="0 0 772.08 369.26">
  <defs>
    <style>
      .cls-1, .cls-2 {
        fill-rule: evenodd;
      }

      .cls-3 {
        fill: #9b7da1;
      }

      .cls-4 {
        fill: #d98c50;
      }

      .cls-2 {
        fill: none;
        stroke: #000;
        stroke-miterlimit: 10;
        stroke-width: 1.23px;
      }

      .cls-5 {
        font-family: Caraque-BoldMelted, Caraque;
        font-size: 333.74px;
        font-weight: 700;
      }
    </style>
  </defs>
  <g id="Ebene_1-2" data-name="Ebene 1">
    <g>
      <text class="cls-5" transform="translate(.65 283.71)"><tspan class="cls-3" x="0" y="0">ST</tspan><tspan class="cls-4" x="317.28" y="0">i</tspan><tspan class="cls-3" x="387.35" y="0">NA</tspan></text>
      <path class="cls-1" d="M370.39,48.04c-.16,0-.22.13-.13.29.1.16.24.29.32.29.07,0,.12-.13.12-.29s-.14-.29-.31-.29ZM368.81,48.57c-1.52-.28-2.05-.29-2.29-.05-.11.11-.75.25-1.44.32-.68.06-1.27.22-1.33.37-.04.14-.25.2-.44.11-.21-.08-.75.21-1.22.64-.57.51-.68.71-.32.58.44-.15.51-.07.39.41-.18.69.04.73,1.15.17,2.22-1.12,3.34-1.45,3.58-1.07.3.48,1.47.14,1.47-.43,0-.22.37-.5.8-.62.78-.21.77-.21-.36-.43ZM378.04,50.79c-.14.09-.73-.29-1.32-.85-.87-.82-1.27-.99-2.22-.96-.64.03-1.16.09-1.16.13s.5.3,1.1.56c.6.26.95.53.76.6-.45.17,1.77,2.44,2.39,2.44.37,0,.46-.18.35-.73-.07-.4-.02-.74.12-.74s.25-.14.25-.31-.11-.24-.26-.15ZM375.09,58.41c-.41-.22-.69-.5-.64-.61.05-.11-.32-.45-.81-.76-.5-.3-.84-.68-.74-.84.09-.16-.06-.3-.35-.31-.32-.02-.38-.09-.15-.17.2-.09.84.27,1.41.77.57.5,1.13.84,1.21.75.27-.27-1.7-1.88-3.1-2.54-1.61-.75-5.9-.98-8.26-.45-.9.21-2.28.8-3.06,1.31-1.57,1.03-1.58,1.06-.11.66l1.02-.28-.95.86c-1.04.95-1.22,1.32-.44.88.76-.42,3.33-1.47,3.58-1.47.12,0,.29.26.37.58.09.32.39.59.69.6.3,0,1.86.05,3.46.09,3.31.09,5.25.58,4.99,1.26-.1.27-.03.38.2.3.21-.07.33-.27.3-.44-.04-.21.24-.22.88-.04,1.26.36,1.37.33.5-.15ZM366.62,55.92c-.16,0-.29-.14-.29-.29,0-.17.13-.3.29-.3.15,0,.29.13.29.3,0,.15-.14.29-.29.29ZM342.58,56.78c.35.17.93.31,1.28.31,1.27,0-.23-1.08-2.16-1.57-1.62-.41-4.73-.8-4.94-.62-.04.04-.99.15-2.11.25-2.16.2-4.18.82-5.46,1.69-.43.29-.92.53-1.09.53s-.32.15-.32.32c0,.2-.36.25-.95.14-.8-.15-.86-.14-.4.15.3.19,1.04.27,1.68.19,1.26-.17,1.47.1.47.62-.6.32-.59.33.22.16,1.02-.21,1.58-.31,3.29-.58.68-.11,1.32-.33,1.41-.47.09-.15.32-.15.5-.03.19.13,1.43.19,2.76.14,2.25-.09,2.45-.15,2.69-.8.3-.79.34-.78,2.76.48,2.13,1.1,2.3,1.07.88-.19-.64-.56-.88-.9-.53-.73ZM344.97,55.33c-.52,0-.49.13.35,1.3,1.06,1.48,1.74,1.88,1.74,1.05,0-.78-1.4-2.35-2.09-2.35ZM358.09,55.89c-.09-.24-.29-.14-.61.33-.27.38-.42.75-.34.84.25.25,1.08-.76.95-1.16ZM360.33,73.74c-.11.18-.87.22-2.01.1l-1.83-.18-1.5,1.33c-1.33,1.17-1.6,1.3-2.32,1.08-.44-.14-1.17-.33-1.62-.44-.44-.09-1.39-.76-2.1-1.48-1.38-1.4-1.53-1.45-3.04-1.03-1.11.33-2.41-.18-3.03-1.16-.62-.99-.79-.62-.32.74.48,1.42,1.73,2.66,2.97,2.97.43.1,1.33.56,2.02,1.04,1.29.88,3.52,1.69,4.69,1.69.8,0,2.81-.98,3.94-1.92.5-.42,1.39-.76,2.32-.89,1.45-.19,2.85-1.09,2.85-1.85,0-.39-.79-.39-1.03,0ZM335.55,75.02c-1.75,1.51-3.32,2.99-3.48,3.28-.16.3-.39.61-.52.68-.37.26-.62,1.68-.32,1.86.15.09.56-.38.91-1.06s2.05-2.64,3.79-4.37c1.68-1.68,2.99-3.05,2.99-3.14-.09,0-1.61,1.24-3.35,2.75ZM375.41,79.76c-.54.1-.98,0-1.28-.3-.26-.26-.63-.47-.85-.47-.53,0-1.72-.81-3.22-2.2-2.01-1.86-4.33-3.71-4.33-3.47,0,.12.69.98,1.53,1.91.85.93,2.17,2.44,2.95,3.34l1.4,1.64-.68.74-.68.74.99-.5c.72-.36,1.33-.45,2.25-.31,1.33.2,2.27-.11,2.55-.85.14-.34,0-.4-.64-.27ZM378.21,78.81c-.05-.05-.31.38-.56.98-.25.61-.54,1.63-.64,2.27q-.17,1.15.26.39c.44-.78,1.14-3.46.95-3.64ZM369.1,81.07c-.33,0-1.31.17-2.19.38-.88.21-3.77.54-6.42.72-2.65.18-5.71.44-6.82.57-1.75.22-2.39.15-5.24-.59-2.68-.68-3.86-.84-6.67-.84-1.88,0-3.74.12-4.13.27-.39.15-1.17.16-1.75.03-.58-.13-1.11-.18-1.19-.1-.08.08.09.58.35,1.11.45.9,1.45,1.48,3.93,2.29.27.09.5.36.5.59,0,.81,4.32,3.04,7.19,3.7.79.19,3.04.32,5.01.29,2.99-.03,3.95-.17,5.83-.8,2.96-.98,3.51-1.28,5.59-3.02.96-.8,1.97-1.45,2.24-1.45,1.04,0,3.47-1.87,3.14-2.41-.08-.12.17-.34.54-.5.6-.24.61-.27.09-.27ZM362.28,85.58c-.17-.1-.45.08-.63.41-.24.46-.44.53-.84.31-.43-.22-.6-.14-.86.44-.39.85-.86.92-1.39.21-.35-.48-.4-.47-.81.08-.37.49-.53.52-1.02.23-.5-.31-.59-.26-.75.37-.15.6-.35.71-1.27.71-.6,0-2.18.09-3.52.2-2.33.18-2.43.16-2.59-.45-.14-.54-.31-.62-1-.46-.71.15-.91.05-1.4-.76l-.57-.95-.36.78c-.38.85-1.27,1.04-1.53.33-.12-.31-.4-.38-.88-.27-.39.1-.79.04-.9-.14-.1-.17-.44-.32-.74-.32-.62,0-1.04-1.36-.74-2.34.18-.56.24-.57.7-.16.46.42.56.41,1.11-.1.67-.62,2.31-1.18,3-1.03.24.06,1.1.19,1.9.3s1.92.38,2.48.62c.65.27,1.39.35,2.04.22,1.64-.33,2.61-.42,5.48-.54,2.41-.1,2.75-.06,3.05.43.27.41.44.46.74.21.21-.18.78-.37,1.26-.42.76-.09.86,0,.85.7,0,.98-.4,1.68-.82,1.41ZM341.91,51.65c-.57-.15-.66-.26-.35-.47.26-.19.1-.22-.49-.09-.65.13-.76.09-.44-.12.48-.33.46-.33-.59-.48-1.72-.25-3.45-.27-3.32-.06.21.35-.11.28-1.07-.21-.59-.3-1.22-.38-2.07-.25-.89.15-1.16.1-1.01-.14.13-.22-.05-.33-.54-.33s-.75.15-.75.45-.17.4-.55.28c-.3-.09-.89-.04-1.31.12-.5.19-.77.19-.77,0,0-.15.13-.28.29-.28s.3-.14.3-.3c0-.35.03.32-1.16.92l-.86.86-1.18-.02-.53.88.46,1.13-.03.96c.11,0,.24.03.38.05.5.09.87.04.87-.11s-.22-.29-.49-.29c-.35,0-.15-1.15.52-1.75.51-.45.85-.06.85-.25s.47-.34,1.09-.36c.86-.02.97-.07.51-.26-.64-.27-.43-.4,1.02-.69.4-.09,1.01-.24,1.34-.34.46-.15.66-.05.77.37.13.49.37.55,1.83.46.92-.06,1.83,0,2.01.15.18.15.72.26,1.21.27.48,0,1.27.17,1.74.38,1.35.59,2.69.65,2.87.14.12-.29-.07-.5-.57-.62ZM339.62,51.83c-.07,0-.21-.14-.31-.3-.1-.15-.04-.29.13-.29s.31.14.31.29c0,.16-.06.3-.13.3Z"/>
      <path class="cls-2" d="M317.13,207.92s-.05-.05-.07-.09"/>
      <path class="cls-2" d="M366.71,248.36c-.13-.04-.25-.09-.37-.13"/>
    </g>
  </g>
</svg>