<?xml version="1.0" encoding="UTF-8"?>
<svg id="Ebene_2" data-name="Ebene 2" xmlns="http://www.w3.org/2000/svg" viewBox="0 0 86.04 145.71">
  <defs>
    <style>
      .cls-1 {
        fill-rule: evenodd;
      }
    </style>
  </defs>
  <g id="Ebene_1-2" data-name="Ebene 1">
    <path class="cls-1" d="M85.71,73.78s0-.02,0-.03c0,0,0,0,0-.01h0c-.28-.6-.72-1.11-1.27-1.39-.88-.46-.93-.58-.93-2.74,0-1.34-.25-3.02-.6-4.11-.9-2.76-1.1-4.81-1.07-11.18.01-3.18-.11-6.04-.28-6.37-.17-.32-.46-1.5-.65-2.62-.18-1.12-.4-2.4-.48-2.84-.09-.45-.24-1.28-.35-1.86-.11-.57-.33-1.05-.48-1.05s-.29-.37-.29-.81-.15-.81-.32-.81-.33-.33-.33-.72c-.01-1.23-.38-2.28-.65-1.85-.39.64-.95.03-.83-.92.06-.48.05-.69-.03-.47-.23.62-.64.47-.91-.33-.13-.4-.22-.83-.2-.96.02-.13-.13-.64-.32-1.13-.2-.49-.47-1.99-.62-3.32-.26-2.4-1.23-4.76-2.61-6.3-.32-.36-1.24-2.03-2.05-3.72-2.22-4.61-4.01-6.66-9.41-10.81-.69-.53-1.94-1.64-2.76-2.47-1.15-1.15-1.84-1.56-2.91-1.74-.77-.13-2.55-.74-3.96-1.36-2.2-.97-3.08-1.16-6.3-1.4-7.66-.57-8.93-.6-9.88-.29-.53.18-1.64.23-2.47.13-.93-.12-1.58-.06-1.71.16-.12.19-.61.35-1.09.35-1.51-.01-7,2.27-8.92,3.71-1.08.81-2.39,2.22-3.19,3.43-1.01,1.53-1.48,2.04-2.44,2.42-.12.05-.24.09-.37.14-1.61.55-2.32,1.61-2.85,4.58h0c-.08.43-.15.88-.22,1.39-.32,2.32-.32,3.24,0,4.53.66,2.65.83,4.32.5,4.92-.17.31-.99,1.71-1.82,3.12-.82,1.41-1.76,3.01-2.08,3.57-1.01,1.78-3.01,8.16-4.87,15.45-.22.84-.5,1.6-.63,1.68-.13.08-.17,1.86-.09,3.95.21,5.34.19,5.71-.36,7.94-.27,1.1-.56,3.74-.66,5.87-.12,2.67-.31,3.98-.6,4.2-.58.44-1.55,4.01-1.36,5.01.57,3.04.98,3.92,2.3,5.05,1.05.9,1.45,1.51,1.7,2.65.39,1.77,1.09,8.44,1.16,11.18.03,1.08.29,2.39.59,2.97.65,1.24,2.45,2.68,3.36,2.68.54,0,.69.28.87,1.69.38,2.94,1.2,5.78,2.69,9.29.79,1.87,1.57,3.55,1.73,3.75.34.42.42,10.83.13,13.79,0,.02.02.03.03.04l6.73,7.75c.18-.35.26-.85.21-1.41-.07-.72-.03-.75.52-.32.33.26.78.72,1.02,1.04.23.31.59.56.79.56.27,0,.26-.11-.02-.39-.21-.21-.39-.59-.39-.83,0-.29.45-.09,1.26.55.69.55,1.41,1,1.6,1s.52.33.73.72c.21.4.47.8.58.89.32.27,1,1.4,1.41,2.34.21.49.62.89.9.89s.79.29,1.11.65c.32.35.93.64,1.34.64.56,0,.75.18.75.71,0,.2,0,.33.01.42.02.12.06.13.14.05.06-.07.15-.18.28-.35.42-.57.46-.57,1.35.02.73.48,1.49.6,3.69.57,1.52-.02,3.05-.06,3.41-.08.72-.06,3.39.19,4.76.43.5.09.89.01.89-.18s.27-.25.61-.14c1.11.35,4.6-1.75,6.79-4.09,2.26-2.42,4.78-4.85,6.29-6.07.99-.8,1.88-1.71,1.99-2.02.11-.31.41-.56.67-.56s.55-.21.65-.46c.1-.25.67-.69,1.27-.98,1.06-.5,1.89-.34,2.23.37.72-.94,1.43-1.92,2.12-2.94h0c.02-1.71.23-4.57.49-6.56.28-2.1.55-4.17.6-4.62.06-.45.64-1.78,1.29-2.97,1.53-2.8,3.62-9.18,3.91-11.96.18-1.66.36-2.21.8-2.35.59-.19,1.89-1.45,1.49-1.45-.13,0-.55.3-.94.66l-.71.66-.21-1.04c-.12-.57-.13-1.25-.03-1.51.12-.31.03-.42-.28-.33-.25.09-.47.58-.5,1.1-.03.52-.15,1.45-.27,2.07-.12.62-.22,1.35-.22,1.61,0,.27-.22,1.5-.49,2.75-1.52,7.04-1.96,8.22-4,10.98-.53.71-1.6,2.46-2.39,3.88-3.13,5.67-4.63,7.87-5.92,8.73-.71.48-.72.47-.53-.73.1-.67.77-2.94,1.48-5.04.7-2.11,1.23-3.88,1.16-3.95-.07-.07-.39.63-.72,1.56-1.88,5.32-3.87,9.01-6.38,11.78-4.46,4.93-6.95,6.23-12.15,6.35-4.8.12-7.22-.47-10.88-2.62-3.03-1.78-6.91-5.99-8.53-9.26-1.91-3.83-2.95-5.53-4.73-7.69-1.57-1.91-1.87-2.13-2.27-1.73-.66.66-.57.92.18.51.54-.29.65-.25.65.27,0,.34.23.8.5,1.03.36.3.4.48.13.64-.27.17-.22.47.19,1.09.31.47.64.78.73.69s-.03-.39-.25-.66c-.23-.28-.34-.58-.25-.67.28-.28,2.43,3.81,2.61,4.95.09.58.1,1.05,0,1.05-.27,0-1.08-.91-1.08-1.21,0-.16-.44-.7-.97-1.21-.54-.52-.97-1.27-.97-1.69s-.14-.68-.3-.58c-.17.1-.39.04-.51-.15-.11-.18-.05-.33.13-.33s-.14-.66-.71-1.48c-.57-.81-1.24-1.85-1.48-2.3-.35-.64-.5-.72-.74-.38-.19.29-.23.15-.09-.44.16-.7.09-.89-.35-.89-.35,0-.49-.17-.37-.47.1-.26.05-.56-.13-.67-.17-.1-.32,0-.33.24-.02.41-.68-.88-.77-1.52-.03-.18-.21-.68-.41-1.13-.46-1.04-.82-2.01-.88-2.42-.03-.18-.14-.54-.25-.81-.11-.27-.37-1.03-.57-1.7s-.49-1.14-.64-1.05c-.38.24-.62-.66-.81-3.01-.14-1.65-.08-2,.32-2,.27,0,.49-.15.49-.32s.22-.32.49-.32.48.16.48.34.14.26.31.15c.49-.31.03-1.09-.74-1.24q-.69-.14.03-.18c.4-.03.72-.21.72-.41s-.29-.28-.64-.19c-.36.1-.65.04-.65-.12s.22-.3.49-.3.48-.14.48-.32-.19-.32-.41-.32c-.39,0-1.53-1.1-1.53-1.47,0-.1-.27-.46-.59-.81-.48-.51-.58-1.07-.52-2.73.06-1.55-.03-2.09-.34-2.09-.33,0-.35-.24-.09-1.1.19-.61.23-1.37.09-1.7-.14-.33-.22-1.03-.18-1.56.06-.78-.01-.9-.34-.57-.69.67-.94.46-.85-.73.06-.72.22-1.08.47-.99.22.09.31-.04.22-.29-.11-.29.26-.58,1.07-.85.95-.32,1.09-.45.59-.55-.36-.07-.82-.28-1.05-.46-.49-.4-.54-3.16-.06-3.16.19,0,.27-.12.18-.26-.28-.46.37-1.14.9-.93.65.25.68,1.19.03,1.19-.84,0-.52.5.57.87,2.48.85,2.74.85,1.56.02-.62-.44-1.13-1.09-1.16-1.48-.06-.86.67-.93,1.56-.14.62.54.63.54.27-.14-.51-.98-.47-1.72.11-1.72.27,0,.49-.16.49-.36,0-.23.35-.29.97-.17.55.11.97.06.97-.12s-.25-.32-.54-.32c-.39,0-.26-.25.48-.92.57-.5,1.03-1.09,1.03-1.29s.52-.38,1.21-.4c.95-.02,1.07-.08.56-.29-.7-.29-.47-.45,1.13-.77.44-.09,1.12-.26,1.49-.38.51-.16.72-.06.84.41.14.54.41.61,2.03.51,1.03-.07,2.03.01,2.23.17.2.16.79.28,1.33.29.53,0,1.4.19,1.94.42,1.49.65,2.97.71,3.18.15.13-.33-.08-.55-.64-.69-.63-.16-.73-.28-.39-.52.29-.21.12-.24-.54-.11-.71.15-.84.11-.48-.13.53-.36.52-.37-.65-.53-1.9-.27-3.82-.3-3.67-.07.24.39-.13.32-1.18-.23-.65-.34-1.36-.42-2.29-.27-.98.16-1.29.11-1.12-.16.15-.25-.06-.37-.59-.37s-.83.18-.83.5c0,.35-.19.45-.6.32-.33-.11-.99-.05-1.45.13-.54.21-.85.21-.85.01,0-.18.15-.32.32-.32s.33-.15.33-.33c0-.39-1.38-.11-2.71.56l-.93.47.17-2.86c.1-1.57.27-3.11.39-3.42.14-.34.08-.56-.15-.56-.41,0-.33-2.14.1-2.84.14-.22.13-.4-.02-.4-.46,0-.15-7.03.4-8.81.28-.93.58-2.19.67-2.81.08-.62.29-1.18.46-1.24.17-.06.31-.32.31-.57s.36-.61.8-.77c1.01-.38,1.06-.64.08-.44-.62.13-.6.08.17-.36.49-.28.89-.65.89-.82s.22-.32.49-.32.48-.22.48-.48c0-.3.31-.48.8-.48.45,0,.81-.11.81-.25s.47-.45,1.05-.71l1.05-.47-.81-.23c-.67-.19-.6-.23.48-.27,1.21-.04,1.25-.08.67-.52-.62-.47-.62-.47,0-.51.81-.05.74-.06,2.24.22,1.13.21,1.24.18.89-.24-.34-.41-.21-.49.94-.53.73-.03,1.56.13,1.84.35.41.34.46.32.3-.13-.28-.73.08-1,.67-.51.41.33.46.31.28-.17-.18-.47-.07-.54.6-.42.53.1.88-.02,1-.34.12-.29.44-.43.79-.34.33.09.6.04.6-.1,0-.31,2.24.43,2.54.83.12.16.41.33.65.38.31.07.37-.08.21-.48-.63-1.54-.44-1.71.38-.34.5.84,1.1,1.53,1.33,1.53.31,0,.33-.16.08-.62-.18-.34-.33-.89-.32-1.21.01-.42.17-.31.53.38.29.53.79,1.32,1.12,1.74.51.65.6.68.6.19,0-.32.1-.49.22-.37.12.12.41.05.65-.16.34-.28.56-.23.94.25.47.58.49.57.36-.27-.08-.48-.02-.8.14-.7.16.09.28-.2.28-.64,0-.89.5-1.4.75-.77.09.23.18.08.19-.32.03-.75,1-1.07,1-.33,0,.22.35-.03.78-.56.42-.53.89-.98,1.05-.98.78-.04,2.05-.52,2.05-.79,0-.17.21-.23.46-.13.26.1.4.35.32.55-.09.24.29.39,1.07.42.67.02,1.51.11,1.86.2.36.09.92.03,1.25-.15.44-.23.69-.19.89.13.15.24.28.34.28.21,0-.12.39-.03.85.22.58.3,1.1.35,1.61.15.9-.35,1.73-.09,1.73.52,0,.26.2.36.49.25.27-.1.48,0,.48.21s.19.32.42.23c.24-.09.78.11,1.21.44.43.33,1.11.61,1.49.61.39,0,.8.15.9.33.12.18-.01.24-.31.13-.35-.14-.45-.05-.32.28.12.3.47.42.97.32.48-.09.79,0,.79.23,0,.21.14.29.32.18.19-.12.3.14.26.61-.05.62-.17.72-.48.46-.3-.25-.42-.24-.42.01,0,.2.36.45.8.56.44.11,1.25.73,1.8,1.38.54.65,1.35,1.59,1.8,2.1.45.51.73,1.13.64,1.37-.1.25-.03.46.16.46s.25.13.15.29c-.1.17-.03.7.16,1.19.18.49.22.98.07,1.08-.15.11-.24.37-.22.59.03.22.07,1.14.09,2.04.03.9.18,1.55.34,1.45.16-.1.26.07.21.38-.05.31.03.96.16,1.43.16.56.1,1.08-.18,1.47-.26.37-.32.79-.16,1.05.15.25.11.68-.1,1.02-.28.44-.27.68.03.98.22.22.4.86.4,1.44s.18,1.11.4,1.2c.32.13.32.17,0,.19-.22.02-.4.27-.4.56s.09.45.19.35c.33-.33,1.31.86,1.17,1.44-.16.64.6,2.52,1.02,2.52.16,0,.11.21-.11.47-.32.39-.26.51.37.66.67.17.77.4.83,1.87.04.92.2,2.04.37,2.49.41,1.08.93,4.58,1.02,6.79.04.98.09,2.18.11,2.66.02.51.22.88.48.88s.36.2.26.46c-.1.26-.26.98-.36,1.61-.58,3.73-.59,3.47.05,3.08.42-.27.6-.83.64-2.03.05-1.18.23-1.77.64-2.05.32-.22.91-.73,1.31-1.13.68-.69.76-.7,1.28-.18.49.49.51.8.2,2.64-.2,1.15-.59,2.55-.87,3.13-.58,1.16-.51,1.54.14.75.58-.69,1.57-5.37,1.36-6.43-.1-.54.02-1,.33-1.24.27-.21.58-.82.7-1.36.12-.53.72-1.79,1.33-2.8.35-.57.69-1.23.94-1.8.19-.43.33-.8.37-1.03.14-.69.03-1.38-.27-2.01ZM3.11,81.57c-.37,0-1.48-1.38-1.9-2.35-.47-1.12-.51-5.07-.05-5.07.18,0,.47.37.64.83.17.45.32,1.52.32,2.37s.1,1.64.22,1.76c.36.36,1.01,2.47.76,2.47ZM29.88,71.56c.19,0,.34.15.34.32s-.07.33-.14.33c-.08,0-.23-.15-.34-.33-.11-.18-.05-.32.14-.32ZM67.98,41.02c-.09.09-.35-.17-.58-.56-.41-.68-.4-.68.16-.15.32.31.51.62.43.71ZM74.15,66.88c-.18.11-.32.05-.32-.15s.15-.34.32-.34.33.07.33.15c0,.08-.15.23-.33.34ZM84.57,76.65c-.29.1-.4-.38-.4-1.69s.11-1.79.4-1.7c.25.09.4.73.4,1.7s-.16,1.61-.4,1.69ZM20.01,118.58c-.22-.56-.45-.66-.45-.2,0,.17.15.39.32.5.18.12.24-.02.13-.3ZM18.49,116.06c-.09-.22-.16-.04-.16.4s.07.62.16.4.09-.58,0-.8ZM62.68,104.55c-.36,0-1.44.2-2.42.43-.98.24-4.17.59-7.1.79-2.93.2-6.32.48-7.54.64-1.94.25-2.64.17-5.8-.65-2.97-.76-4.26-.93-7.38-.93-2.08,0-4.14.14-4.57.3-.44.17-1.3.18-1.94.04-.64-.14-1.23-.19-1.31-.11-.09.09.09.64.39,1.23.5,1,1.6,1.64,4.34,2.54.31.1.56.39.56.65,0,.9,4.78,3.36,7.94,4.1.87.21,3.36.35,5.55.32,3.31-.04,4.37-.19,6.46-.88,3.27-1.09,3.88-1.42,6.18-3.34,1.07-.89,2.18-1.61,2.48-1.61,1.14,0,3.84-2.07,3.47-2.66-.09-.14.18-.38.59-.55.66-.27.67-.3.1-.3ZM55.15,109.54c-.19-.12-.5.09-.7.45-.27.51-.48.59-.94.35-.47-.25-.66-.16-.95.48-.43.94-.95,1.02-1.53.23-.39-.53-.44-.53-.9.08-.41.54-.59.58-1.12.26-.55-.34-.66-.29-.83.41-.17.66-.39.79-1.4.79-.66,0-2.41.1-3.89.21-2.57.2-2.69.18-2.87-.5-.16-.59-.34-.67-1.11-.51-.79.17-1.01.06-1.55-.84l-.64-1.05-.39.86c-.43.94-1.4,1.15-1.7.37-.13-.34-.44-.43-.97-.3-.43.11-.87.04-1-.15-.12-.19-.49-.35-.81-.35-.69,0-1.16-1.5-.81-2.6.2-.62.26-.63.77-.17.51.46.62.45,1.23-.12.74-.68,2.56-1.3,3.32-1.13.27.06,1.21.21,2.1.33.89.12,2.13.43,2.75.68.72.3,1.54.38,2.26.24,1.82-.36,2.89-.46,6.07-.6,2.67-.12,3.05-.07,3.38.47.29.46.48.51.81.24.24-.2.86-.41,1.39-.46.85-.1.95-.01.95.78,0,1.09-.45,1.85-.91,1.56ZM12.57,104.67c-.1-.27-.24-.48-.31-.48s-.13.22-.13.48.14.49.31.49.23-.22.13-.49ZM72.77,102.05c-.06-.06-.34.43-.62,1.09s-.6,1.79-.71,2.5c-.2,1.28-.19,1.28.28.44.48-.86,1.26-3.83,1.05-4.03ZM15.76,103.86c-.08-.53-.27-.97-.42-.97s-.19-.22-.09-.48c.12-.3,0-.49-.31-.49-.27,0-.56-.18-.65-.4-.12-.3-.17-.3-.19.03-.01.24.18.82.44,1.29.25.47.54,1.11.63,1.42.3.94.74.63.59-.4ZM78.43,95.84c-.53-.08-.72.06-.72.51,0,.33.19.86.42,1.18.38.51.46.52.83.08.59-.71.31-1.64-.53-1.76ZM69.67,103.09c-.59.12-1.08,0-1.42-.33-.28-.28-.7-.52-.94-.52-.58,0-1.9-.9-3.55-2.43-2.22-2.05-4.79-4.1-4.79-3.84,0,.14.76,1.09,1.69,2.12.94,1.03,2.4,2.69,3.26,3.7l1.56,1.82-.75.82-.75.81,1.09-.56c.79-.4,1.47-.5,2.49-.34,1.47.22,2.51-.13,2.82-.94.15-.38,0-.44-.71-.3ZM76.95,95.71c-.09-.22-.17-.04-.17.4s.08.63.17.4c.09-.22.09-.58,0-.8ZM29.28,94.82c-.11,0-1.78,1.37-3.71,3.04s-3.67,3.3-3.85,3.63c-.18.33-.44.67-.57.76-.41.28-.69,1.85-.37,2.05.17.11.62-.43,1.01-1.18.39-.75,2.27-2.93,4.19-4.83,1.92-1.91,3.4-3.47,3.3-3.47ZM52.99,96.44c-.13.2-.97.25-2.22.12l-2.03-.21-1.66,1.48c-1.47,1.3-1.77,1.44-2.56,1.2-.49-.16-1.3-.37-1.79-.48-.49-.11-1.54-.84-2.32-1.64-1.53-1.55-1.7-1.61-3.36-1.14-1.23.36-2.67-.2-3.35-1.29-.69-1.1-.87-.69-.36.81.54,1.57,1.92,2.95,3.29,3.28.47.12,1.48.63,2.23,1.14,1.43.98,3.9,1.87,5.18,1.87.88,0,3.11-1.08,4.36-2.13.55-.46,1.55-.84,2.57-.98,1.61-.22,3.15-1.22,3.15-2.05,0-.43-.87-.44-1.14,0ZM74.67,78.43c-.11-.11-.18.09-.17.43.02.38.09.45.19.2.1-.24.09-.51-.03-.62ZM50.51,76.7c-.1-.27-.32-.16-.68.35-.3.42-.46.84-.38.93.28.28,1.2-.84,1.06-1.28ZM35.99,76.08c-.58,0-.54.14.39,1.44,1.17,1.63,1.92,2.09,1.92,1.16,0-.86-1.54-2.6-2.31-2.6ZM33.35,77.68c.39.19,1.03.34,1.42.34,1.4,0-.26-1.2-2.39-1.73-1.78-.45-5.23-.87-5.46-.68-.05.05-1.1.17-2.34.28-2.39.21-4.63.91-6.03,1.87-.47.32-1.02.59-1.21.59s-.35.16-.35.35c0,.22-.39.28-1.05.15-.88-.17-.96-.15-.45.17.34.21,1.16.3,1.86.21,1.4-.19,1.63.12.53.7-.67.35-.65.36.24.18,1.13-.23,1.75-.34,3.65-.64.76-.13,1.46-.36,1.56-.52.1-.17.35-.18.56-.03.21.14,1.58.21,3.06.15,2.49-.11,2.71-.17,2.98-.89.33-.87.38-.86,3.06.53,2.36,1.22,2.54,1.18.97-.21-.71-.63-.98-.99-.59-.8ZM69.31,79.49c-.45-.25-.76-.55-.7-.67s-.35-.5-.9-.84c-.55-.34-.92-.75-.81-.93.11-.18-.07-.33-.39-.34-.35-.02-.42-.1-.18-.19.22-.09.93.29,1.57.85.63.56,1.24.93,1.34.83.3-.3-1.89-2.08-3.43-2.81-1.77-.83-6.53-1.09-9.14-.5-1,.23-2.52.87-3.39,1.44-1.74,1.14-1.75,1.18-.13.73l1.13-.31-1.05.96c-1.16,1.05-1.36,1.46-.48.98.84-.46,3.68-1.63,3.96-1.63.14,0,.32.29.41.65.1.35.44.65.76.66.33.01,2.05.06,3.83.11,3.66.1,5.8.64,5.52,1.39-.12.3-.03.42.22.33.23-.08.37-.3.33-.49-.05-.23.27-.24.97-.04,1.39.4,1.52.36.56-.17ZM59.94,76.73c-.18,0-.32-.15-.32-.32s.15-.33.32-.33.32.15.32.33-.15.32-.32.32ZM74.67,70.03c-.11-.11-.18.09-.17.43.02.37.09.45.19.19.1-.23.09-.51-.03-.62ZM72.57,71.06c-.16.1-.81-.32-1.46-.94-.97-.91-1.4-1.1-2.46-1.06-.7.03-1.29.09-1.29.14s.55.33,1.21.61c.67.29,1.05.59.85.66-.5.19,1.95,2.7,2.63,2.7.41,0,.51-.2.39-.8-.08-.45-.03-.81.13-.81s.28-.16.28-.34-.13-.26-.28-.17ZM62.36,68.61c-1.68-.31-2.27-.33-2.53-.06-.12.12-.83.28-1.59.35s-1.41.25-1.47.41c-.06.16-.28.22-.5.13-.22-.09-.83.23-1.35.7-.63.57-.75.79-.35.65.48-.17.57-.08.43.45-.2.77.05.81,1.28.19,2.46-1.24,3.71-1.6,3.97-1.18.33.53,1.63.16,1.63-.47,0-.25.4-.56.89-.69.86-.22.84-.24-.4-.47ZM64.12,68.01c-.19,0-.25.15-.14.33.11.18.26.32.34.32s.14-.15.14-.32-.15-.33-.34-.33ZM72.73,65.84c-.11-.11-.19.09-.17.43.01.37.1.45.2.19.1-.23.08-.51-.03-.62Z"/>
  </g>
</svg>