<?xml version="1.0" encoding="UTF-8"?>
<svg id="Ebene_2" data-name="Ebene 2" xmlns="http://www.w3.org/2000/svg" viewBox="0 0 133.07 190.55">
  <defs>
    <style>
      .cls-1 {
        fill-rule: evenodd;
      }
    </style>
  </defs>
  <g id="Ebene_1-2" data-name="Ebene 1">
    <path class="cls-1" d="M59.36.19c-.51.17-1.59.23-2.38.12-.9-.12-1.53-.06-1.65.15-.11.18-.59.33-1.05.33-1.46,0-6.75,2.2-8.61,3.58-1.04.78-2.31,2.14-3.08,3.31-1.09,1.66-1.54,2.06-2.71,2.46-1.78.61-2.41,1.85-2.95,5.75-.31,2.24-.31,3.13,0,4.37.64,2.56.8,4.17.48,4.75-.16.3-.95,1.65-1.75,3.01-.8,1.35-1.7,2.9-2,3.45-.97,1.72-2.91,7.87-4.7,14.9-.21.82-.48,1.55-.61,1.63-.12.08-.16,1.79-.08,3.81.2,5.15.18,5.5-.34,7.66-.26,1.06-.55,3.61-.64,5.67-.12,2.58-.3,3.84-.58,4.05-.56.42-1.49,3.87-1.31,4.84.55,2.94.94,3.78,2.22,4.87,1.01.86,1.39,1.46,1.64,2.56.38,1.71,1.05,8.14,1.12,10.78.03,1.04.28,2.31.57,2.87.63,1.2,2.36,2.59,3.24,2.59.53,0,.67.27.84,1.64.36,2.83,1.16,5.58,2.59,8.96.76,1.8,1.52,3.43,1.68,3.62.33.41.41,11.06.1,13.54-.28,2.25-1.31,3.58-3.51,4.55-1.89.84-2.24.89-3.64.57-.77-.18-1.16-.04-2.15.75-.67.53-2,1.19-2.96,1.47-.96.28-3.07,1.18-4.7,1.99-1.63.82-4.08,1.8-5.45,2.17-4.99,1.37-7.88,2.23-12.31,3.67l-4.52,1.46-.09,3.83c-.07,3.11,0,3.92.39,4.31.61.61.61,1.49,0,1.99-.6.5-.64,1.91-.04,1.69.23-.09,1.07.2,1.85.63,1.73.97,1.7.97,1.7.07s.94-2.39,1.53-2.39c.78,0,.85.94.12,1.61-.46.43-.63.86-.51,1.31.1.37.18.79.18.93,0,.15.3.19.65.1.97-.25,3.4.74,3.4,1.39,0,.3.19.65.42.79.23.14.52.76.63,1.39.24,1.29-.12,1.59-1.34,1.14-1.01-.37-1.58-.11-1.58.72,0,.38-.23.94-.52,1.26-.49.54-.47.62.21,1.35.74.78,2.32,1.02,3.93.59.66-.18.66-.18.08-1.38-.57-1.17-.76-2.17-.41-2.17.66,0,2.61,1.4,3.22,2.32.66.99.89,1.11,2.03,1.08l1.28-.03-1.04-.3c-.85-.24-.97-.38-.67-.74.61-.73,1.39-.81,3.26-.32,2.78.72,6.09,2.45,7.73,4.03,1.58,1.53,1.7,1.5,1.85-.59.09-1.2.13-1.25,1.29-1.34,1.21-.1,3.32.66,3.32,1.2,0,.45-2.5,1.61-3.03,1.41-.85-.33.08.56,1.93,1.83,1.82,1.25,2.87,1.33,2.51.18-.15-.48-.06-.62.41-.62,1.6,0,1.61,2.07,0,2.39-1.33.27-.48.71,1.37.72q1.47,0,1.29-.93c-.14-.69-.07-.93.26-.93.69,0,1.19.67,1.19,1.58,0,1.04-1.28,1.65-3.11,1.48-1.42-.14-1.38-.19-.88,1.2.28.76.52.99.91.87.29-.09.62-.02.74.16.13.21.37.15.69-.16.35-.35.59-.39.82-.16.18.18.65.33,1.05.33.89,0,.92.35.06.88-1,.63-.49.77.81.23.64-.27,1.21-.49,1.26-.49s.07.53.03,1.17c-.07,1.04-.17,1.17-.91,1.18-.46,0-.93.11-1.05.23-.12.12.01.22.3.22.31,0,.52.25.52.62,0,.34.14.62.31.62s.31.21.31.47c0,.34-.2.42-.74.29-1.04-.26-1.27.32-.31.76.53.24.74.53.61.85-.1.27-.19.61-.19.77s-.23.29-.5.29c-.31,0-.43.17-.33.46.1.25.04.54-.13.64-.17.1-.56-.42-.87-1.16l-.57-1.35.08,1.64c.06,1.24-.02,1.64-.36,1.64-.24,0-.44-.14-.44-.3s-.21-.22-.47-.12c-.26.1-.47.02-.47-.18s-.13-.28-.3-.18c-.16.1-.5-.2-.74-.66-.44-.83-.45-.84-.8-.18-.34.64-.38.65-1.36.13-1.32-.69-1.54-1.04-1.03-1.61.23-.26.39-.83.35-1.25-.04-.43,0-.91.09-1.08.09-.17.17-1.01.18-1.87.02-1.47.07-1.57.87-1.67.72-.08.83-.22.74-.93-.13-1.1-1.33-3.61-2.02-4.23-.5-.45-.58-.42-1.09.43l-.55.92,1.29,1.23c.71.68,1.23,1.41,1.15,1.64-.15.44-1.54.52-2.62.15-.61-.21-.69-.08-1.01,1.71-.46,2.6-.79,2.87-1.9,1.52l-.88-1.08-1.48,1.64c-.81.9-1.6,1.53-1.74,1.38-.26-.26.1-3.15.53-4.26.21-.54.12-.58-1.07-.39-.71.11-1.3.13-1.3.03,0-.42.77-1.61,1.62-2.52.51-.54.79-1.06.62-1.17-.17-.1-1.16-.1-2.2,0-1.56.16-1.93.31-2.1.86-.11.36-.35.75-.53.87-.22.14-.2.36.06.68.32.39.28.53-.23.8-.85.46-1.3.42-1.93-.15-.5-.45-.62-.36-1.65,1.18-.61.92-1.64,2.24-2.29,2.94-1.14,1.22-1.16,1.31-.72,2.09.35.61.38.95.13,1.35-.48.76-1.07.87-1.08.2,0-.51-.05-.52-.39-.07-.38.5-3.2,1.88-3.6,1.76-.12-.03-.78.32-1.47.78-.75.5-1.89.92-2.8,1.03-2.42.29-2.95.66-2.95,2.06,0,1.22.23,1.46.84.85.25-.25.53-.24,1.04.03.55.29.86.28,1.49-.05.62-.33.82-.34.92-.03.16.47,2.88.54,2.88.08,0-.17.21-.31.47-.31.42,0,.42-.09-.03-.76-.67-1.02-.34-1.91.86-2.33,1.47-.51,2.89-.41,3.76.29.96.75,1.14.77,1.62.12.32-.44.42-.45.82-.05.61.61,2.39.85,2.79.37.22-.26.17-.43-.16-.56-.75-.29-.56-1.1.31-1.32.56-.14.7-.3.49-.56-.5-.6.15-1.35.81-.94.43.27.66.21,1.1-.31l.55-.65.55.65c.42.49.68.57,1.05.34.67-.42,1.55-.05,1.32.55-.12.3,0,.48.3.48.73,0,.96.63.42,1.16-.38.38-.41.6-.11,1.08.3.49.26.67-.18,1-.3.22-.55.65-.55.95,0,.41-.19.51-.76.4-.49-.09-.83.02-.94.32-.14.38.01.42.84.23,2.63-.61,4.46-.7,5.35-.28.75.36,6.36.43,33.24.43,32.19,0,32.34,0,33.44-.65l1.1-.65,2.56.65c3.02.76,3.07.77,3.07.25,0-.23-.36-.4-.86-.39-.66,0-.84-.12-.8-.59.03-.33-.18-.78-.46-.98-.48-.35-.48-.42.04-1,.37-.4.45-.69.23-.83-.56-.35-.37-1.1.29-1.1.42,0,.62-.21.62-.62,0-.46.21-.62.78-.62.43,0,.78.16.78.36s.26.12.61-.19c.68-.62,1.57-.45,1.57.3,0,.39.12.42.61.16.5-.26.68-.2.96.33.28.53.24.73-.22,1.08-.54.41-.53.43.14.44.92.01,1.24.85.53,1.38-.63.46-.33,1.26.37.99.25-.1.71-.04,1.03.13.42.23.62.19.75-.16.22-.56,1.01-.61,1.35-.07.14.21.53.39.87.39.45,0,.62.2.6.7-.02.64.12.7,1.57.7,1.59,0,2.35-.37,2.35-1.15,0-.29-.57-.41-2.03-.41-2.14,0-2.54-.29-1.23-.88,1.07-.49,2.12-.46,3.46.11,1.01.42,1.1.56.93,1.4l-.19.93,2.48-.09c1.36-.05,2.57-.19,2.69-.31.33-.33,1.36-.25,1.36.1,0,.17.21.31.47.31s.47-.2.47-.45.25-.6.55-.78c.49-.3.45-.41-.47-1.21-.56-.48-1.19-.88-1.4-.89-1.74-.05-3.89-.76-4.33-1.44-.14-.22-.34-.22-.62,0-.23.18-.63.4-.9.49-.57.2-2.72-.73-3.13-1.35-.23-.36-.34-.33-.62.13-.31.53-.36.54-.73.03-.32-.44-.31-.71.06-1.45.25-.5.66-.99.91-1.09.35-.13.21-.44-.61-1.3-1.47-1.56-2.25-2.78-2.72-4.24-.56-1.77-.65-1.86-1.06-1.04-.43.88-1.49,1.1-2.05.43-.33-.39-.32-.57,0-.97.31-.38.32-.54.03-.72-.21-.13-.34-.56-.29-.96.08-.65-.1-.76-1.78-1.1-1.29-.26-2.08-.28-2.56-.07-.68.31-.67.33.54,1.72,1.65,1.88,1.62,2.34-.13,2.2l-1.37-.11.16,2.37c.11,1.59.05,2.44-.19,2.59-.19.12-.35.09-.35-.07s-.58-1.02-1.29-1.91l-1.29-1.62-.89,1.03c-.74.86-.94.95-1.2.56-.17-.26-.32-1.36-.32-2.45,0-1.76-.07-1.96-.55-1.76-.3.12-1.07.29-1.71.39-.91.13-1.17.06-1.17-.31,0-.45,1.96-2.4,2.43-2.41.12,0,.41-.12.64-.27.34-.21.33-.47-.07-1.42l-.49-1.16-.8.63c-1.08.85-1.76,1.75-2.86,3.79l-.93,1.72,1.2-.11c1.16-.11,1.61.29.86.75-.24.15-.22.3.08.49.34.22.31.37-.18.74-.36.28-.44.46-.2.46.22,0,.33.2.23.45-.09.25,0,.52.2.6.28.11.27.22-.03.44-.22.16-.36.48-.31.72.05.25-.11.4-.37.36-.26-.05-.1.2.36.55.92.71.92,2.02,0,1.73-.28-.09-.86.03-1.29.25-.71.37-.84.33-1.48-.4-.45-.51-.63-.61-.51-.26.11.3.04.55-.16.55s-.34.23-.34.5c0,.32-.17.43-.47.32-.26-.1-.47-.03-.47.16s-.2.26-.44.17c-.24-.09-.52.03-.61.28-.09.25-.31.45-.47.45-.34,0-.11-1.98.34-2.96.28-.61.28-.61-.2-.02-.27.33-.48.77-.48.96s-.25.59-.56.87c-.53.48-.58.44-.89-.74-.31-1.14-.27-1.3.41-1.83.95-.75.94-1.07-.04-.88-.43.08-.78.12-.78.08,0-.53,1.11-2.03,1.5-2.03.45,0,.46-.05.06-.3-.26-.17-.73-.22-1.04-.12-.51.16-.55.06-.35-.86.12-.57.25-1.08.29-1.12.25-.29,2.14.75,2.36,1.29.22.55.27.57.29.1.01-.31-.32-.9-.74-1.32-.71-.71-.59-1.38.16-.91.18.11.51-.03.72-.33.36-.49.43-.49.88-.04.45.45.51.45.68,0,.15-.39.28-.42.64-.12.36.3.56.14,1.09-.89.79-1.55.8-1.7.06-1.31-.67.36-2.9.08-3.21-.4-.27-.41.51-1.94,1.1-2.17.71-.27.83.1.3.91-.48.73-.47.74.56.73,1.25-.02,3.35-.85,2.25-.9-.36-.01-.82-.21-1-.44-.47-.57.4-1.77,1.28-1.77.52,0,.58.08.29.37-.21.21-.37.49-.37.62,0,.52,1.01.21,3.35-1.03,2.56-1.36,3.54-2.06,2.36-1.7-.66.2-2.89-.92-2.9-1.45,0-.12.61-.49,1.36-.82.97-.43,1.67-.54,2.41-.39,1.12.24,1.14.29.74,2.68-.21,1.23-.2,1.24.36.59,1.15-1.31,4.19-3.05,6.18-3.54.69-.17,2.09-.52,3.12-.79,1.92-.5,3.7-.4,4.49.25.35.29.1.43-1.25.72l-1.68.36,1.88.03c1.83.03,1.92,0,3.23-1.34.74-.76,1.65-1.44,2.01-1.52.37-.08.91-.25,1.21-.37.34-.14.55-.09.55.14,0,.36-1.46,2.48-1.96,2.84-.27.2,1.86.91,2.71.91.64,0,2.44-.89,2.74-1.37.12-.19.09-.48-.08-.64-.16-.16-.3-.83-.3-1.48,0-1.15-.61-1.65-1.09-.87-.25.41-1.31.4-1.57-.02-.11-.18.02-.58.29-.88.27-.3.5-.7.5-.88s.21-.41.47-.51c.26-.1.47-.46.47-.81,0-.41.2-.63.57-.63.31,0,.66-.09.78-.21.38-.38,1.89-.39,2.33-.02.34.29.53.24.87-.23.59-.81.54-1.73-.11-2.21-.7-.52-.11-1.22.79-.93.67.21,1.16,1.89.82,2.78-.11.28-.12.51-.02.51.26,0,2.47-1.29,3.04-1.77.55-.46,1.62-.22,1.44.32-.06.19-.85.72-1.76,1.19-2.18,1.13-2.28,1.28-.81,1.18,2.24-.15,3.27,0,3.27.48,0,.59-.52.9-1.01.59-.4-.24-1.81-.2-2.8.09-.72.21-.7.74.03.74.79,0,1.53.9,1.66,2.03.1.9.07.93-1.09.86-.7-.04-1.69.18-2.4.55-.66.34-1.55.62-1.97.62s-1.06.25-1.44.55l-.68.55,1.22.54c1.42.63,2.4,1.6,2.11,2.07-.11.18-1.15.33-2.31.33-1.86,0-2.25-.11-3.43-.98-1.27-.93-1.49-.98-4.97-1.13l-3.64-.15,1.25.9c1.16.84,1.85,1.17,5.45,2.6,3.54,1.41,4.19,1.76,5.47,2.94,1.22,1.13,2.48,3.34,3.09,5.39.38,1.28-.29.72-.9-.75-1.02-2.47-3.76-4.69-6.41-5.19-1.99-.38-5.46-1.49-6.2-1.99-1.01-.68-3.04-1.33-4.09-1.3-.49.01-.16.2.9.51,1.26.37,2.18.96,3.66,2.35,2.77,2.59,2.51,3.2-.41.98-1.15-.87-4.64-2.33-5.54-2.3-.18,0,.51.42,1.54.93,2.19,1.08,3.51,2.05,3.21,2.35-.12.12-.68-.06-1.24-.39-1.18-.7-2.35-1.05-6.48-1.96-1.63-.36-3.59-.8-4.36-.98-2.21-.53-2.33-.5-2.44.46-.18,1.58.09,1.84,1.31,1.25.92-.44,1.31-.46,2.74-.14.91.21,2.41.51,3.33.68,2.28.42,3.33,1.02,4.28,2.46.86,1.3,2.36,2.06,3.17,1.6.41-.23.38-.3-.19-.48-.37-.12-.67-.35-.67-.51,0-.52.94-.69,1.77-.31.69.32.78.5.62,1.44l-.18,1.08h1.43c2.59,0,4.25,1.93,3.08,3.6-.41.58-.37.62.7.64.69.01,1.28-.17,1.51-.47.29-.38.5-.42.93-.15,1.44.89-.15,2.51-2.64,2.68-.72.05-1.32.15-1.32.22,0,.07.34.58.77,1.13.83,1.09,2.77,1.72,3.39,1.1.24-.24.19-.33-.16-.33-.81,0-1.34-.84-.88-1.4,1.04-1.26,3.39.39,2.53,1.77-.33.52-.3.69.18,1.05.31.24.68.43.82.44.38.02,1.21,2.21,1.03,2.69-.14.35.56.43,3.89.43h4.05l-.09-2.57-.09-2.57-1.18-.05c-1.19-.05-2.72-1.22-2.72-2.1,0-1.21,2.24-1.55,3.37-.5l.68.64v-1.96c-.02-1.23-.19-2.19-.48-2.56-.59-.78-.58-1.62,0-1.84.4-.15.47-1.78.47-12.03v-11.85h-.78c-1.07,0-1.07-1.29,0-2.13.76-.6.78-.69.78-4.98v-4.36l-5.82-1.92c-3.2-1.06-7.56-2.62-9.69-3.47-2.13-.85-4.52-1.63-5.32-1.74-1.62-.22-5.63-2.23-7.06-3.53-2.1-1.91-4.05-2.11-5.48-.58-.5.53-.9,1.11-.9,1.28s.44.81.97,1.42c.86.98.94,1.25.76,2.38-.84,5.26-7.93,13.79-14.83,17.83-8.29,4.85-16.11,6.98-23.98,6.55-5.82-.32-13.22-2.91-18.38-6.45-2.39-1.64-6.07-5.1-7.54-7.08-1.68-2.27-3.64-6.46-3.95-8.43-.28-1.75-.14-3.17.31-3.17.15,0,.86-.42,1.57-.93.74-.54,1.68-.93,2.21-.93h.92l-.21,1.71c-.14,1.16-.1,1.71.12,1.71.19,0,.57.49.86,1.09.38.8.72,1.09,1.27,1.09.49,0,.81.22.92.64.21.81,1.17.67,1.19-.18,0-.34.27-1,.57-1.46.31-.46.47-.99.36-1.16-.11-.18-.03-.89.18-1.59l.38-1.27,1.33,1.49c.74.83,1.3,1.26,1.25.96-.04-.29-.17-.63-.28-.74-.11-.11-.06-.47.11-.79.17-.32.23-.73.13-.89-.1-.17.01-.31.26-.31.56,0,.95-.85.85-1.86-.07-.7-.03-.73.5-.31.32.25.76.7.98,1,.22.3.57.55.76.55.26,0,.25-.1-.02-.37-.21-.21-.37-.57-.37-.81,0-.28.44-.09,1.21.53.67.53,1.36.96,1.55.96s.5.32.7.7c.2.39.45.77.56.86.31.26.97,1.35,1.36,2.26.2.47.6.86.87.86s.76.28,1.07.62.89.62,1.29.62c.54,0,.73.17.73.68,0,.65.02.65.42.11.4-.55.45-.55,1.31.02.71.46,1.44.58,3.56.55,1.47-.02,2.95-.05,3.29-.08.69-.05,3.28.18,4.6.42.48.09.86.01.86-.17s.26-.24.59-.14c1.07.34,4.44-1.69,6.55-3.95,2.18-2.33,4.61-4.68,6.06-5.85.95-.77,1.82-1.65,1.92-1.95.1-.3.4-.55.65-.55s.53-.2.63-.44c.09-.24.64-.67,1.23-.94,1.35-.64,2.32-.15,2.32,1.17,0,.49.13.8.3.69.17-.1.39.2.49.68.11.48.27,1.08.36,1.34.1.26.35,1.45.56,2.65l.39,2.18.04-1.59c.07-2.82.4-4.48.89-4.48.32,0,.21-.28-.35-.96-.74-.88-.81-1.19-.81-3.88,0-1.61.22-4.57.48-6.6.27-2.02.53-4.03.58-4.46.06-.43.61-1.72,1.24-2.87,1.47-2.7,3.49-8.86,3.77-11.53.17-1.6.35-2.13.77-2.27.57-.18,1.83-1.4,1.44-1.4-.12,0-.53.29-.9.64l-.69.64-.21-1c-.11-.55-.13-1.21-.03-1.46.12-.3.02-.41-.26-.31-.24.08-.46.56-.48,1.06-.02.5-.14,1.4-.26,2-.12.6-.21,1.3-.21,1.56,0,.26-.21,1.45-.47,2.65-1.47,6.79-1.88,7.92-3.86,10.59-.51.69-1.54,2.37-2.3,3.74-3.02,5.46-4.47,7.59-5.71,8.43-.69.46-.7.45-.52-.71.1-.65.74-2.84,1.43-4.86.68-2.03,1.19-3.74,1.12-3.81-.07-.07-.38.61-.7,1.51-1.81,5.13-3.74,8.69-6.15,11.36-4.3,4.75-6.7,6.01-11.72,6.13-4.63.11-6.96-.45-10.5-2.53-2.92-1.72-6.66-5.78-8.23-8.94-1.84-3.7-2.84-5.34-4.56-7.42-1.51-1.84-1.8-2.05-2.19-1.67-.64.64-.55.88.18.49.52-.28.62-.24.62.26,0,.33.22.78.48,1,.35.29.38.46.12.62-.26.16-.21.45.18,1.05.3.46.61.76.7.67.09-.09-.02-.37-.24-.64s-.33-.56-.24-.65c.27-.27,2.34,3.67,2.52,4.78.09.56.09,1.01,0,1.01-.26,0-1.04-.88-1.04-1.17,0-.15-.42-.68-.93-1.17-.52-.5-.93-1.22-.93-1.63s-.13-.66-.29-.56c-.16.1-.38.04-.49-.14-.11-.17-.05-.32.12-.32s-.13-.64-.68-1.43-1.19-1.78-1.43-2.22c-.33-.62-.49-.7-.71-.36-.19.28-.22.14-.09-.43.16-.68.09-.86-.34-.86-.34,0-.47-.16-.36-.46.1-.25.04-.54-.12-.64-.16-.1-.31,0-.32.22-.02.4-.66-.85-.74-1.46-.02-.17-.2-.66-.4-1.09-.45-1-.8-1.94-.86-2.34-.03-.17-.13-.52-.24-.78-.11-.26-.35-.99-.55-1.64-.2-.64-.48-1.1-.62-1.01-.36.23-.6-.63-.79-2.9-.13-1.59-.08-1.93.31-1.93.26,0,.47-.14.47-.31s.21-.31.47-.31.47.15.47.33.13.25.3.15c.48-.29.02-1.05-.71-1.19q-.67-.13.03-.17c.39-.02.7-.2.7-.39s-.27-.28-.62-.18c-.34.09-.62.04-.62-.12s.21-.28.47-.28.47-.14.47-.31-.18-.31-.4-.31c-.37,0-1.47-1.06-1.47-1.42,0-.09-.26-.44-.58-.78-.46-.49-.56-1.03-.5-2.64.06-1.49-.03-2.02-.33-2.02-.32,0-.34-.23-.08-1.06.18-.58.22-1.32.08-1.64-.13-.32-.21-.99-.17-1.51.06-.76,0-.86-.33-.55-.67.65-.9.45-.82-.7.05-.7.21-1.04.45-.95.21.08.31-.04.21-.28-.11-.27.25-.56,1.03-.83.91-.31,1.05-.43.57-.53-.34-.07-.8-.27-1.01-.44-.47-.38-.52-3.04-.06-3.04.18,0,.26-.11.18-.25-.27-.44.35-1.09.86-.9.63.24.66,1.15.03,1.15-.82,0-.5.49.55.85,2.39.82,2.64.82,1.5.02-.6-.42-1.09-1.05-1.12-1.43-.06-.83.65-.89,1.5-.13.6.53.6.52.26-.14-.49-.94-.45-1.66.11-1.66.26,0,.47-.16.47-.35,0-.22.34-.28.93-.16.53.11.93.05.93-.12s-.24-.3-.52-.3c-.38,0-.25-.24.47-.88.54-.49.99-1.05.99-1.25s.5-.37,1.17-.38c.92-.02,1.04-.08.55-.28-.68-.28-.45-.43,1.09-.74.43-.09,1.08-.25,1.44-.36.49-.15.7-.05.81.39.14.52.39.58,1.96.49.99-.06,1.96.01,2.15.16.19.15.77.27,1.28.28.51,0,1.36.19,1.87.41,1.44.62,2.86.69,3.07.14.12-.32-.08-.53-.62-.67-.61-.15-.7-.27-.38-.5.28-.2.12-.23-.52-.11-.69.14-.81.11-.47-.13.51-.35.5-.36-.62-.51-1.84-.26-3.69-.29-3.54-.06.23.37-.12.3-1.14-.22-.63-.33-1.31-.41-2.21-.26-.94.15-1.24.11-1.08-.15.15-.24-.05-.36-.58-.36s-.8.17-.8.49c0,.34-.18.43-.58.3-.32-.1-.95-.04-1.4.13-.53.2-.82.2-.82,0,0-.17.14-.3.31-.3s.31-.14.31-.32c0-.38-1.33-.1-2.61.54l-.89.45.16-2.75c.09-1.51.26-3,.38-3.3.13-.33.08-.55-.14-.55-.39,0-.32-2.06.09-2.73.13-.21.12-.38-.02-.38-.45,0-.14-6.78.38-8.5.27-.89.56-2.11.64-2.71.08-.6.28-1.14.45-1.19.17-.06.3-.31.3-.55s.35-.58.78-.75c.97-.37,1.01-.61.08-.42-.6.12-.58.08.16-.35.47-.27.86-.63.86-.8s.21-.3.47-.3.47-.21.47-.47c0-.29.29-.47.78-.47.43,0,.78-.11.78-.24s.46-.44,1.01-.69l1.01-.45-.78-.22c-.65-.18-.58-.22.47-.26,1.17-.04,1.21-.07.64-.5-.6-.45-.6-.46,0-.49.79-.05.72-.05,2.16.21,1.08.2,1.2.17.86-.23-.33-.4-.2-.47.9-.52.71-.03,1.5.12,1.77.34.4.32.45.3.29-.13-.26-.71.07-.96.65-.5.4.32.44.3.27-.16-.17-.45-.07-.52.58-.41.52.09.85-.02.97-.33.11-.28.42-.41.76-.32.32.08.58.04.58-.09,0-.3,2.16.41,2.45.8.11.15.39.32.63.37.3.06.36-.08.2-.47-.61-1.48-.42-1.65.36-.33.48.81,1.06,1.48,1.28,1.48.3,0,.32-.15.08-.6-.18-.33-.32-.86-.31-1.17,0-.4.16-.3.51.37.28.51.76,1.27,1.08,1.68.49.63.58.66.58.18,0-.31.09-.47.21-.36s.4.05.63-.15c.33-.27.54-.22.91.24.45.56.47.55.35-.26-.07-.47-.01-.77.14-.68.15.09.27-.19.27-.61,0-.86.48-1.35.73-.74.09.22.17.08.18-.31.03-.72.96-1.03.96-.31,0,.21.34-.03.75-.55.41-.51.87-.94,1.01-.95.76-.03,1.98-.51,1.98-.76,0-.16.2-.22.45-.12.25.09.38.34.31.54-.09.23.28.38,1.03.4.64.02,1.45.11,1.8.19s.89.02,1.21-.15c.42-.22.66-.18.85.12.15.23.27.32.27.21,0-.12.37-.02.82.21.56.29,1.05.34,1.56.15.87-.33,1.68-.09,1.68.51,0,.25.19.35.47.24.26-.1.47,0,.47.2s.18.31.41.22c.22-.09.75.11,1.17.43.42.32,1.07.59,1.44.59.38,0,.77.15.87.32.11.18-.02.23-.3.12-.34-.13-.43-.05-.31.27.11.29.45.4.94.31.46-.09.76,0,.76.22,0,.2.14.28.31.18.18-.11.28.14.25.59-.05.6-.16.7-.47.45-.29-.24-.4-.23-.4.01,0,.19.35.43.78.54.43.11,1.21.71,1.73,1.33.53.62,1.31,1.53,1.74,2.02.43.49.71,1.08.61,1.32-.09.24-.02.44.15.44s.24.13.14.29c-.1.16-.03.67.15,1.14.18.47.21.94.07,1.04-.14.1-.23.36-.21.57.03.21.07,1.1.09,1.97.02.87.17,1.5.32,1.4.16-.1.25.07.2.37-.05.3.02.92.15,1.38.15.54.09,1.04-.18,1.42-.25.35-.31.76-.15,1.01.15.24.11.66-.09.99-.27.43-.26.66.03.95.21.21.38.83.38,1.38s.18,1.07.39,1.16c.31.13.31.16,0,.18-.21.01-.39.26-.39.54s.08.44.18.34c.32-.32,1.26.84,1.13,1.39-.15.62.58,2.43.99,2.43.15,0,.1.2-.1.45-.31.37-.24.49.36.64.65.16.75.38.8,1.8.03.89.19,1.97.36,2.4.39,1.04.9,4.41.98,6.55.04.94.08,2.1.1,2.57.02.5.21.86.46.86s.35.19.25.45c-.09.24-.25.95-.34,1.56-.56,3.59-.57,3.35.04,2.97.41-.26.58-.8.62-1.95.04-1.14.22-1.71.62-1.98.31-.21.88-.7,1.26-1.09.66-.67.73-.68,1.23-.17.47.47.49.77.19,2.55-.19,1.11-.57,2.46-.84,3.01-.56,1.12-.49,1.49.14.73.55-.67,1.51-5.18,1.31-6.21-.1-.52.02-.96.31-1.2.26-.21.56-.8.68-1.31.11-.51.69-1.73,1.29-2.7.59-.97,1.16-2.2,1.27-2.72.26-1.29-.4-2.76-1.49-3.32-.85-.44-.89-.56-.89-2.64,0-1.29-.24-2.91-.58-3.96-.87-2.66-1.06-4.64-1.03-10.78.02-3.07-.11-5.83-.27-6.14-.17-.31-.45-1.45-.62-2.53-.18-1.08-.39-2.31-.47-2.74-.08-.43-.23-1.23-.33-1.79-.1-.56-.31-1.01-.46-1.01s-.28-.35-.28-.78-.14-.78-.31-.78-.31-.32-.32-.7c0-1.18-.37-2.2-.63-1.78-.38.62-.91.03-.8-.88.06-.46.04-.67-.03-.46-.22.61-.62.46-.87-.31-.12-.39-.21-.8-.2-.92.02-.12-.12-.61-.31-1.09-.19-.48-.46-1.92-.59-3.2-.25-2.32-1.19-4.59-2.52-6.08-.31-.34-1.2-1.96-1.98-3.58-2.14-4.45-3.86-6.43-9.08-10.43-.67-.51-1.87-1.58-2.66-2.38-1.11-1.11-1.77-1.5-2.8-1.68-.74-.13-2.46-.72-3.82-1.31-2.12-.93-2.97-1.12-6.08-1.35-7.39-.55-8.62-.58-9.53-.28M90.95,39.57c-.08.08-.33-.16-.56-.54-.39-.66-.39-.66.15-.15.31.3.49.61.41.69M95.37,63.92c.01.36.09.44.19.19.09-.22.08-.49-.02-.6s-.18.08-.16.41M97.21,64.19c0,.08-.14.22-.31.33s-.31.04-.31-.14.14-.33.31-.33.31.06.31.14M87.09,65.92c.11.17.25.31.33.31s.14-.14.14-.31-.15-.31-.33-.31-.24.14-.14.31M83.09,66.13c-.12.12-.81.27-1.53.33-.73.07-1.36.24-1.42.39s-.27.21-.48.12c-.21-.08-.8.22-1.3.68-.61.55-.72.76-.33.63.47-.16.55-.08.42.43-.19.74.05.78,1.23.19,2.38-1.19,3.57-1.55,3.83-1.14.32.51,1.57.15,1.57-.46,0-.24.39-.54.86-.67.83-.22.81-.23-.39-.46-1.63-.3-2.19-.31-2.44-.05M90.36,66.76s.53.31,1.17.59c.64.28,1.01.57.82.64-.48.18,1.88,2.6,2.54,2.6.4,0,.49-.2.38-.78-.08-.43-.03-.78.12-.78s.27-.15.27-.33-.12-.25-.27-.16c-.15.09-.78-.31-1.41-.9-.93-.88-1.35-1.06-2.37-1.02-.68.03-1.24.09-1.24.13M97.24,67.97c.01.36.09.44.19.19.09-.22.08-.49-.02-.6s-.18.08-.16.41M54.53,69.35c0,.17-.06.31-.14.31s-.22-.14-.33-.31-.04-.31.14-.31.33.14.33.31M107.34,72.31c0,.93-.15,1.56-.39,1.64-.28.09-.39-.36-.39-1.64s.11-1.73.39-1.64c.24.08.39.71.39,1.64M27.12,72.33c.17.44.3,1.47.3,2.28s.1,1.58.21,1.7c.35.35.98,2.38.74,2.38-.36,0-1.43-1.33-1.83-2.27-.46-1.07-.5-4.89-.05-4.89.18,0,.46.36.62.8M80.04,72.25c-.96.22-2.43.85-3.27,1.39-1.68,1.1-1.69,1.14-.12.7l1.09-.3-1.01.92c-1.11,1.01-1.31,1.41-.47.95.81-.45,3.55-1.57,3.82-1.57.13,0,.31.28.4.62.09.34.42.63.74.64.32,0,1.98.05,3.69.1,3.53.1,5.6.62,5.32,1.34-.11.29-.03.41.21.32.21-.08.36-.29.32-.47-.05-.22.25-.23.93-.04,1.35.39,1.47.35.54-.17-.43-.24-.73-.53-.68-.65.06-.12-.34-.48-.87-.81-.53-.33-.89-.73-.78-.9.1-.17-.06-.32-.37-.33-.34-.01-.4-.09-.17-.18.22-.09.9.28,1.51.82.61.54,1.2.9,1.3.8.29-.29-1.82-2.01-3.31-2.7-1.71-.8-6.3-1.05-8.81-.48M51.34,72.94s-1.06.16-2.26.27c-2.31.2-4.46.87-5.82,1.8-.45.31-.98.57-1.17.57s-.34.15-.34.34c0,.21-.38.26-1.01.14-.85-.16-.92-.14-.43.17.32.2,1.12.29,1.79.2,1.35-.18,1.57.12.51.67-.65.34-.63.35.23.17,1.09-.22,1.68-.33,3.51-.62.73-.12,1.41-.34,1.51-.5.1-.16.34-.17.54-.03.2.14,1.53.21,2.95.15,2.4-.1,2.61-.16,2.87-.86.32-.84.37-.83,2.95.51,2.27,1.18,2.45,1.14.94-.2-.69-.61-.94-.95-.57-.77.37.18.99.33,1.37.33,1.35,0-.25-1.16-2.31-1.67-1.72-.43-5.05-.85-5.27-.65M60.47,74.78c1.13,1.58,1.85,2.01,1.85,1.12,0-.83-1.49-2.51-2.23-2.51-.56,0-.52.13.38,1.38M83.51,73.71c0,.17-.14.31-.31.31s-.31-.14-.31-.31.14-.31.31-.31.31.14.31.31M73.44,74.33c-.29.41-.45.81-.36.9.27.27,1.16-.81,1.01-1.24-.09-.26-.31-.15-.65.34M97.24,76.07c.01.36.09.44.19.19.09-.22.08-.49-.02-.6s-.18.08-.16.41M57.54,91.93c.52,1.52,1.85,2.85,3.17,3.17.46.11,1.43.61,2.16,1.11,1.37.94,3.76,1.8,5,1.8.85,0,3-1.04,4.21-2.06.53-.44,1.49-.81,2.48-.94,1.55-.21,3.04-1.17,3.04-1.97,0-.42-.84-.42-1.09,0-.12.2-.94.24-2.15.12l-1.95-.2-1.61,1.43c-1.41,1.26-1.71,1.39-2.47,1.15-.47-.15-1.25-.36-1.73-.46-.48-.1-1.48-.82-2.24-1.58-1.47-1.5-1.64-1.55-3.24-1.09-1.19.34-2.57-.19-3.23-1.24-.66-1.06-.84-.67-.34.78M50.04,94.4c-1.87,1.61-3.54,3.19-3.71,3.51-.17.32-.42.65-.55.74-.39.27-.67,1.79-.35,1.98.16.1.6-.41.97-1.13.37-.72,2.19-2.82,4.04-4.66,1.85-1.84,3.28-3.35,3.18-3.35s-1.71,1.32-3.58,2.93M99.45,92.72c0,.43.07.6.16.39.09-.21.09-.56,0-.78-.09-.21-.16-.04-.16.39M82.26,92.58c0,.13.74,1.05,1.64,2.04.9.99,2.31,2.6,3.14,3.56l1.5,1.76-.73.79-.73.79,1.05-.54c.77-.39,1.42-.48,2.4-.33,1.42.21,2.42-.12,2.72-.9.14-.37,0-.43-.69-.29-.57.11-1.04,0-1.37-.32-.27-.27-.68-.5-.91-.5-.56,0-1.83-.87-3.43-2.35-2.14-1.98-4.62-3.96-4.62-3.71M100.33,92.95c0,.32.18.84.41,1.14.36.5.45.5.8.07.57-.69.3-1.58-.51-1.7-.51-.07-.7.06-.7.49M38.97,97.97c-.01.23.17.79.42,1.25.24.45.52,1.07.61,1.37.28.91.72.61.57-.39-.08-.51-.26-.93-.4-.93s-.19-.21-.09-.47c.11-.29,0-.47-.3-.47-.26,0-.55-.18-.63-.39-.12-.29-.16-.29-.18.03M94.97,99.5c-.27.64-.58,1.72-.68,2.41-.19,1.23-.18,1.24.27.43.47-.83,1.21-3.69,1.02-3.89-.06-.06-.33.41-.6,1.05M37.08,100.97c0,.26.14.47.3.47s.22-.21.12-.47c-.1-.26-.23-.47-.3-.47s-.12.21-.12.47M83.51,101.28c-.94.23-4.03.57-6.85.76-2.83.19-6.1.47-7.27.62-1.87.24-2.55.16-5.6-.63-2.86-.74-4.11-.9-7.12-.9-2.01,0-3.99.13-4.41.29-.42.16-1.25.18-1.87.04-.61-.14-1.18-.18-1.27-.1-.08.08.09.61.37,1.18.49.96,1.55,1.58,4.18,2.45.3.1.55.38.55.63,0,.86,4.61,3.24,7.66,3.95.84.2,3.25.34,5.35.31,3.19-.04,4.22-.18,6.23-.85,3.16-1.05,3.74-1.37,5.96-3.22,1.03-.86,2.11-1.56,2.4-1.56,1.1,0,3.71-2,3.35-2.57-.08-.13.18-.37.57-.53.64-.26.65-.29.1-.29-.34,0-1.39.19-2.34.42M62.47,102.86c.86.12,2.05.41,2.65.66.7.29,1.49.37,2.18.23,1.75-.34,2.78-.45,5.86-.58,2.57-.11,2.94-.06,3.26.45.28.44.46.5.78.23.23-.19.83-.39,1.34-.45.82-.09.92,0,.91.75,0,1.05-.43,1.78-.88,1.51-.18-.11-.48.08-.67.43-.26.49-.47.57-.91.33-.45-.24-.63-.15-.92.46-.41.9-.92.98-1.48.22-.38-.51-.43-.51-.87.08-.39.52-.57.56-1.08.25-.53-.33-.64-.28-.8.39-.16.64-.38.76-1.35.76-.64,0-2.33.09-3.75.2-2.49.19-2.59.17-2.77-.49-.15-.57-.33-.65-1.06-.49-.76.17-.97.05-1.5-.82l-.61-1.01-.38.83c-.41.91-1.35,1.11-1.64.36-.12-.33-.42-.42-.93-.29-.41.1-.85.04-.96-.15-.11-.19-.47-.34-.79-.34-.66,0-1.12-1.45-.78-2.51.19-.6.25-.61.75-.17.49.44.6.43,1.19-.12.71-.66,2.47-1.26,3.2-1.09.26.06,1.17.2,2.03.32M43.05,112.35c0,.43.07.6.16.39.09-.21.09-.56,0-.78-.09-.21-.16-.04-.16.39M44.25,114.2c0,.16.14.38.31.48.18.11.23-.02.12-.29-.21-.54-.43-.64-.43-.19M.55,155.25c-.3.08-.55.41-.55.74,0,.61.45.82.75.34.09-.14.62-.2,1.19-.14l1.03.12-.74-.64c-.4-.35-.83-.63-.93-.61-.11.02-.44.1-.74.18M.21,157.42c-.11.11-.2.78-.2,1.48v1.27s.51-1.02.51-1.02c.28-.57.82-1.1,1.24-1.2.41-.1.74-.31.74-.46,0-.32-1.97-.38-2.28-.07M.55,161.17c-.51.13-.55,1.02-.55,13.07,0,8.54.11,12.86.31,12.73.17-.11.31-.57.32-1.03,0-.46.11-.99.23-1.18.38-.57,1.55-1.07,2.05-.88,1.16.45.76,2-.52,2-.46,0-.55.1-.31.33.59.59,2.5-.02,3.71-1.2,1.12-1.09,1.13-1.12.46-1.37-.38-.14-1.01-.18-1.4-.08-.49.12-.99-.06-1.6-.59-.8-.69-.85-.85-.52-1.58.39-.86,1.42-1.1,1.85-.43.14.21.76.39,1.38.39,1.04,0,1.1-.05.82-.67-.69-1.51,1.23-3.5,3.62-3.77,1.37-.15,1.44-.21,1.44-1.15,0-1.17.48-1.74,1.46-1.74.92,0,.93.74.02,1.18-.5.24-.56.34-.19.36.97.04,2.72-.91,3.38-1.83.74-1.04,2.21-1.57,4.33-1.57.75,0,2.04-.24,2.87-.54,1.31-.46,1.66-.48,2.65-.12,1.28.46,1.68.19,1.69-1.13,0-.85.05-.85-3.33-.05-1.51.36-3.97.77-5.48.91-1.83.18-3.1.48-3.83.91-1.25.73-1.37.77-1.37.34,0-.37,1.97-1.65,3.27-2.11.89-.32.9-.34.16-.35-1.13-.03-3.13.98-4.19,2.11-.83.88-1.73,1.29-1.73.78,0-.11.77-.97,1.7-1.91,1.16-1.17,2.22-1.91,3.35-2.31l1.65-.6-1.55.18c-1.04.12-1.91.46-2.65,1.06-.76.61-2.01,1.1-4.06,1.58-1.63.39-3.74,1.05-4.7,1.48-1.51.67-1.93,1.06-3.12,2.91-.75,1.18-1.48,2.15-1.61,2.16-.49.04-.19-.8,1.03-2.93,1.4-2.43,2.73-3.62,4.92-4.4.8-.29,1.87-.7,2.38-.91s1.72-.62,2.67-.89c.96-.27,2.01-.8,2.34-1.17.33-.37,1.02-.85,1.53-1.08.82-.36.53-.39-2.46-.28-3,.11-3.54.22-4.59.91-.84.56-1.61.79-2.62.79-1.46,0-3.26-.7-3.26-1.27,0-.38,2.4-1.52,3.23-1.53.49,0,.52-.09.19-.48-.22-.26-.87-.7-1.45-.98-.58-.28-1.2-.76-1.37-1.08-.17-.32-.52-.58-.77-.58s-.46-.14-.46-.31c0-.32-.37-.35-1.32-.1M106.72,165.63c-.11.17-.04.31.14.31s.33-.14.33-.31-.06-.31-.14-.31-.22.14-.33.31M95.7,169.02l-.72.54.8.52c1.06.7,1.13.67,1.13-.39,0-1.18-.31-1.35-1.21-.67M29.28,170.16c-.43,1.13-.42,1.14.71.9,1.35-.29,1.38-.35.55-1.08-.9-.78-.89-.79-1.26.17M94.06,174.04l-.74.63.86-.37c.47-.2.86-.48.86-.63,0-.39-.17-.33-.98.37M99.08,174.5c0,.27,1.83,1.1,2.4,1.09.48,0,.46-.1-.17-.62-.65-.54-2.22-.87-2.22-.47M23.68,175.13c-.32.39-.29.47.21.47.33,0,.87-.21,1.21-.46.58-.44.57-.46-.21-.47-.45,0-.99.2-1.21.46M30.69,174.97c.11.17.33.31.5.31s.22-.14.12-.31-.33-.31-.5-.31-.22.14-.12.31M95.99,176.76c-.01.56.12,1.01.29,1.01s.31-.13.31-.29.09-.53.21-.83c.13-.35.09-.47-.13-.34-.19.11-.41.03-.5-.18-.09-.22-.17.06-.18.62M13.39,176.66c-.73.22-1.07.5-1,.82.24,1.19-2,2.78-2.58,1.83-.33-.54.5-1.26,1.22-1.07.63.17.64.16.07-.29-.75-.6-2.2-.07-3.1,1.13-.58.78-.59.87-.09,1.62.29.44.8.8,1.15.8,1.09,0,3.13-1.25,3.67-2.24.29-.53.85-1.36,1.26-1.86.41-.5.69-.95.62-1-.06-.05-.61.06-1.21.25M28.1,176.72c-.24.26-.32.72-.2,1.11.19.6.24.61.51.14.16-.29.25-.79.2-1.11-.08-.5-.16-.52-.51-.14M98.56,176.66c-.29.33-.19.68.46,1.62.97,1.42,1.28.88.54-.91-.54-1.3-.5-1.27-1-.71M24.77,178.09c-.31.69-.49,1.32-.4,1.41.26.26,1.86-2.01,1.65-2.35-.35-.57-.68-.32-1.25.94M111.18,178.74c1.15,2.05,2.53,3.08,4.13,3.08,1.92,0,3.18-2.09,1.92-3.19-.3-.26-.84-.57-1.21-.68-.7-.21-2.29.35-2.29.8,0,.15.27.1.6-.11.85-.53,1.71.17,1.25,1.02-.39.72-1.17.75-2.12.08-.54-.38-.69-.73-.59-1.4.08-.56,0-.9-.24-.9-.21,0-.83-.09-1.38-.2l-1.01-.2.94,1.68M85.65,180.19c-.39.49-.38.51.12.12.52-.41.68-.66.43-.66-.06,0-.31.25-.55.55M86.31,180.89c-.18.34-.26.62-.18.62s.31-.28.49-.62.26-.62.18-.62-.31.28-.49.62M8.31,183.33c-.58.65-.66.99-.22.99.33,0,1.07-1.22.87-1.43-.07-.07-.36.13-.65.44M115.29,183.66c0,.76.72,1.35,1.35,1.11.45-.17.45-.26,0-.94-.59-.89-1.35-.99-1.35-.16M121.9,184.76c.22.24.45.39.51.33.18-.18-.28-.77-.61-.77-.17,0-.12.2.1.44M103.45,186.03c-.22.27-.25.47-.07.47s.4-.21.5-.47c.1-.26.13-.47.07-.47s-.28.21-.5.47M8.42,188.23c0,.55,1.51,1.99,2.1,2,.21,0,.39-.13.39-.3s.37-.31.82-.31c.69,0,.76-.07.43-.46-.21-.25-.3-.68-.2-.93.15-.39-.15-.47-1.68-.47s-1.86.1-1.86.48M17.93,189.32c.11.18.03.53-.18.78-.31.37-.26.45.25.45.47,0,.62-.19.58-.78-.02-.43-.23-.78-.45-.78-.22,0-.32.15-.21.32M105.78,189.62c-.11.17-.04.31.14.31s.33-.14.33-.31-.06-.31-.14-.31-.22.14-.33.31M104.38,190.08c0,.26.13.47.28.47s.36-.21.46-.47c.11-.28,0-.47-.28-.47-.25,0-.46.21-.46.47"/>
  </g>
</svg>