<?xml version="1.0" encoding="UTF-8"?>
<svg id="Ebene_2" data-name="Ebene 2" xmlns="http://www.w3.org/2000/svg" viewBox="0 0 579.2 277.01">
  <defs>
    <style>
      .cls-1 {
        font-family: Caraque-BoldMelted, Caraque;
        font-size: 250.36px;
        font-weight: 700;
      }

      .cls-2 {
        letter-spacing: 0em;
      }

      .cls-2, .cls-3 {
        fill: #9b7da1;
      }

      .cls-4, .cls-5 {
        fill-rule: evenodd;
      }

      .cls-6 {
        fill: #d98c50;
      }

      .cls-5 {
        fill: none;
        stroke: #000;
        stroke-miterlimit: 10;
        stroke-width: .92px;
      }
    </style>
  </defs>
  <g id="Ebene_1-2" data-name="Ebene 1">
    <g>
      <text class="cls-1" transform="translate(.49 212.83)"><tspan class="cls-3" x="0" y="0">ST</tspan><tspan class="cls-6" x="238.02" y="0">i</tspan><tspan class="cls-2" x="290.58" y="0">NA</tspan></text>
      <path class="cls-4" d="M279.86,36.04c-.12,0-.17.1-.1.22.08.12.18.22.24.22.05,0,.09-.1.09-.22s-.1-.22-.23-.22ZM278.68,36.44c-1.14-.21-1.54-.22-1.72-.04-.08.08-.56.19-1.08.24-.51.04-.96.17-1,.28-.03.1-.19.15-.33.08-.15-.06-.56.16-.92.48-.43.39-.51.53-.24.44.33-.11.38-.05.3.31-.13.52.03.55.87.13,1.67-.84,2.51-1.09,2.69-.8.22.36,1.1.1,1.1-.32,0-.17.28-.38.6-.47.58-.15.58-.16-.27-.32ZM285.6,38.1c-.1.06-.55-.22-.99-.64-.65-.62-.95-.74-1.67-.72-.48.02-.87.06-.87.1s.37.22.82.42c.45.19.71.4.57.45-.34.13,1.33,1.83,1.79,1.83.28,0,.35-.13.26-.55-.05-.3-.01-.55.09-.55s.19-.1.19-.23-.08-.18-.19-.11ZM283.39,43.82c-.31-.17-.52-.37-.48-.46.04-.08-.24-.34-.61-.57-.38-.22-.63-.51-.55-.63.07-.12-.05-.22-.26-.23-.24-.01-.28-.06-.12-.13.15-.06.63.2,1.06.58.43.38.85.63.91.56.21-.21-1.28-1.41-2.32-1.91-1.21-.56-4.43-.74-6.2-.34-.67.15-1.71.6-2.3.98-1.18.77-1.19.8-.08.49l.76-.21-.71.65c-.78.71-.92.99-.33.66.57-.31,2.5-1.1,2.69-1.1.09,0,.22.19.28.44.06.24.3.44.52.45.22,0,1.39.04,2.59.07,2.48.06,3.94.44,3.74.94-.08.2-.02.29.15.22.15-.05.25-.21.22-.33-.03-.16.18-.17.66-.03.94.27,1.03.25.38-.12ZM277.03,41.95c-.12,0-.22-.1-.22-.22,0-.13.1-.22.22-.22.12,0,.22.1.22.22,0,.12-.1.22-.22.22ZM259,42.59c.26.13.7.23.96.23.95,0-.17-.81-1.62-1.17-1.21-.31-3.55-.6-3.7-.46-.03.03-.74.12-1.58.19-1.62.15-3.14.62-4.09,1.27-.32.22-.69.4-.82.4s-.24.11-.24.24c0,.15-.27.19-.71.1-.6-.12-.65-.1-.3.12.22.14.78.21,1.26.14.94-.13,1.1.08.35.47-.45.24-.44.25.17.12.76-.15,1.19-.23,2.47-.44.51-.08.99-.24,1.06-.35.07-.11.24-.12.38-.02.14.1,1.07.14,2.07.1,1.69-.07,1.84-.12,2.02-.6.22-.59.26-.58,2.07.36,1.6.83,1.73.8.66-.14-.48-.42-.66-.67-.4-.55ZM260.79,41.51c-.39,0-.37.1.26.98.8,1.11,1.3,1.41,1.3.79,0-.58-1.05-1.76-1.57-1.76ZM270.64,41.93c-.06-.18-.22-.1-.46.24-.21.28-.31.56-.26.63.19.19.81-.57.71-.87ZM272.32,55.32c-.08.13-.65.17-1.51.08l-1.37-.13-1.12,1c-.99.88-1.2.98-1.74.81-.33-.1-.88-.25-1.21-.33-.33-.07-1.05-.57-1.58-1.11-1.03-1.05-1.15-1.09-2.28-.77-.83.24-1.81-.13-2.27-.87-.46-.74-.59-.47-.24.55.36,1.07,1.3,2,2.23,2.23.32.08,1,.42,1.51.78.97.66,2.64,1.26,3.52,1.26.6,0,2.11-.73,2.96-1.44.37-.31,1.05-.57,1.74-.67,1.09-.14,2.14-.82,2.14-1.39,0-.3-.59-.3-.77,0ZM253.73,56.28c-1.32,1.13-2.49,2.24-2.61,2.46-.12.22-.3.46-.39.51-.28.19-.46,1.26-.24,1.39.11.07.42-.29.68-.8s1.54-1.98,2.84-3.28c1.26-1.26,2.24-2.29,2.24-2.36-.07,0-1.21.93-2.52,2.06ZM283.63,59.83c-.4.08-.73,0-.96-.22-.19-.19-.48-.35-.64-.35-.4,0-1.29-.61-2.41-1.65-1.51-1.39-3.25-2.79-3.25-2.61,0,.09.52.73,1.15,1.43.64.7,1.63,1.83,2.21,2.51l1.05,1.23-.51.56-.51.55.74-.38c.54-.27.99-.34,1.69-.23.99.15,1.7-.08,1.91-.64.1-.26,0-.3-.48-.21ZM285.73,59.12s-.23.29-.42.74c-.19.46-.4,1.22-.48,1.7q-.13.87.19.3c.33-.58.85-2.59.71-2.73ZM278.89,60.82c-.24,0-.98.13-1.64.29-.66.16-2.83.4-4.82.54-1.99.13-4.29.33-5.11.43-1.31.17-1.79.12-3.93-.44-2.01-.51-2.89-.63-5.01-.63-1.41,0-2.8.09-3.1.21-.3.11-.88.12-1.32.03-.44-.1-.83-.13-.89-.08-.06.06.06.44.26.83.34.67,1.09,1.11,2.95,1.72.21.07.38.27.38.44,0,.61,3.24,2.28,5.39,2.78.59.14,2.28.24,3.76.22,2.25-.03,2.96-.13,4.38-.6,2.22-.74,2.63-.96,4.2-2.27.72-.6,1.48-1.09,1.68-1.09.78,0,2.61-1.41,2.36-1.81-.06-.09.13-.26.4-.37.45-.18.46-.21.07-.2ZM273.78,64.2c-.13-.08-.34.06-.47.31-.18.35-.33.4-.63.23-.32-.17-.45-.1-.65.33-.29.64-.64.69-1.04.15-.26-.36-.3-.35-.61.06-.28.37-.4.39-.76.17-.37-.23-.44-.19-.56.28-.11.45-.26.53-.95.53-.45,0-1.64.07-2.64.15-1.75.13-1.82.12-1.94-.34-.1-.4-.23-.46-.75-.35-.53.12-.68.04-1.05-.57l-.43-.71-.27.58c-.29.64-.95.78-1.15.25-.09-.23-.3-.29-.66-.21-.29.08-.59.03-.67-.1-.08-.13-.33-.24-.55-.24-.47,0-.78-1.02-.55-1.76.13-.42.18-.43.53-.12.35.31.42.31.83-.08.5-.47,1.73-.89,2.25-.77.18.04.82.14,1.42.22s1.44.29,1.86.46c.49.21,1.05.26,1.53.17,1.23-.24,1.96-.31,4.11-.4,1.81-.08,2.07-.04,2.29.32.2.31.33.35.55.16.16-.13.58-.28.94-.31.57-.06.64,0,.64.53,0,.74-.3,1.26-.62,1.06ZM258.49,38.75c-.43-.11-.49-.19-.26-.35.19-.14.08-.17-.37-.07-.49.1-.57.07-.33-.09.36-.24.35-.25-.44-.36-1.29-.19-2.59-.21-2.49-.04.16.26-.08.21-.8-.16-.44-.22-.92-.28-1.55-.19-.67.11-.87.08-.76-.1.1-.17-.04-.25-.4-.25s-.56.12-.56.34-.13.3-.41.21c-.22-.07-.67-.03-.98.09-.37.14-.58.14-.58,0,0-.12.1-.21.22-.21s.22-.1.22-.22c0-.26.03.24-.87.69l-.64.64-.88-.02-.4.66.35.85-.03.72c.08,0,.18.02.28.04.37.07.65.03.65-.08s-.17-.22-.37-.22c-.26,0-.12-.86.39-1.31.39-.34.64-.04.64-.19s.35-.26.82-.27c.64-.01.73-.05.39-.19-.48-.2-.32-.3.76-.52.3-.06.76-.18,1.01-.26.35-.11.49-.04.58.28.1.37.28.41,1.37.35.69-.04,1.37,0,1.51.11.13.11.54.19.9.2.36,0,.95.13,1.31.28,1.01.44,2.02.49,2.16.1.09-.22-.05-.37-.43-.46ZM256.78,38.88c-.05,0-.15-.1-.23-.22-.08-.12-.03-.22.1-.22s.23.1.23.22c0,.12-.05.22-.1.22Z"/>
      <path class="cls-5" d="M237.91,155.98s-.04-.04-.05-.07"/>
      <path class="cls-5" d="M275.1,186.32c-.1-.03-.19-.07-.28-.1"/>
    </g>
  </g>
</svg>